%TF.GenerationSoftware,KiCad,Pcbnew,(5.1.9-0-10_14)*%
%TF.CreationDate,2021-04-08T22:14:15+02:00*%
%TF.ProjectId,mainboard,6d61696e-626f-4617-9264-2e6b69636164,rev?*%
%TF.SameCoordinates,Original*%
%TF.FileFunction,Soldermask,Bot*%
%TF.FilePolarity,Negative*%
%FSLAX46Y46*%
G04 Gerber Fmt 4.6, Leading zero omitted, Abs format (unit mm)*
G04 Created by KiCad (PCBNEW (5.1.9-0-10_14)) date 2021-04-08 22:14:15*
%MOMM*%
%LPD*%
G01*
G04 APERTURE LIST*
%ADD10O,1.700000X1.700000*%
%ADD11R,1.700000X1.700000*%
%ADD12C,2.000000*%
%ADD13R,2.000000X2.000000*%
%ADD14C,3.200000*%
%ADD15C,0.300000*%
%ADD16C,1.102360*%
%ADD17C,1.450000*%
G04 APERTURE END LIST*
D10*
%TO.C,J7*%
X132715000Y-93345000D03*
X132715000Y-90805000D03*
X132715000Y-88265000D03*
D11*
X132715000Y-85725000D03*
%TD*%
D12*
%TO.C,C3*%
X81788000Y-94695000D03*
D13*
X81788000Y-99695000D03*
%TD*%
D14*
%TO.C,REF\u002A\u002A*%
X144145000Y-113030000D03*
%TD*%
%TO.C,REF\u002A\u002A*%
X144145000Y-85725000D03*
%TD*%
%TO.C,REF\u002A\u002A*%
X74930000Y-113030000D03*
%TD*%
%TO.C,REF\u002A\u002A*%
X74930000Y-85725000D03*
%TD*%
D15*
%TO.C,U1*%
X113963500Y-93737000D03*
X112128500Y-93737000D03*
X114881000Y-92819500D03*
X113046000Y-92819500D03*
X111211000Y-92819500D03*
X113963500Y-91902000D03*
X112128500Y-91902000D03*
X114881000Y-90984500D03*
X113046000Y-90984500D03*
X111211000Y-90984500D03*
X113963500Y-90067000D03*
X112128500Y-90067000D03*
%TD*%
D16*
%TO.C,S3*%
X73025000Y-93116400D03*
X73025000Y-96113600D03*
%TD*%
D17*
%TO.C,J1*%
X75344000Y-107783000D03*
X75344000Y-102783000D03*
%TD*%
D10*
%TO.C,J8*%
X109474000Y-114046000D03*
X112014000Y-114046000D03*
D11*
X114554000Y-114046000D03*
%TD*%
D10*
%TO.C,J2*%
X127000000Y-111252000D03*
X129540000Y-111252000D03*
X132080000Y-111252000D03*
D11*
X134620000Y-111252000D03*
%TD*%
D10*
%TO.C,J6*%
X132715000Y-106680000D03*
D11*
X132715000Y-104140000D03*
%TD*%
D10*
%TO.C,J5*%
X98425000Y-106934000D03*
D11*
X98425000Y-109474000D03*
%TD*%
D10*
%TO.C,J4*%
X139065000Y-109220000D03*
X139065000Y-106680000D03*
X139065000Y-104140000D03*
X139065000Y-101600000D03*
X139065000Y-99060000D03*
X139065000Y-96520000D03*
X139065000Y-93980000D03*
X139065000Y-91440000D03*
D11*
X139065000Y-88900000D03*
%TD*%
D10*
%TO.C,J3*%
X104648000Y-106934000D03*
D11*
X104648000Y-109474000D03*
%TD*%
M02*
