M48
INCH,TZ
T1C0.0197
T2C0.0236
T3C0.0335
T4C0.0394
%
G90
G05
T1
X33200Y-40500
X33250Y-33250
X33250Y-42500
X35350Y-44800
X36000Y-33250
X36000Y-35250
X36600Y-39550
X36600Y-44800
X40000Y-34000
X40250Y-36250
X41500Y-41000
X42979Y-36729
X42979Y-38729
X43000Y-33750
X43000Y-35500
X43000Y-37990
X44500Y-34550
X46000Y-39100
X47000Y-39100
X48750Y-42000
X48750Y-44750
X49229Y-34229
X49229Y-35729
X49250Y-38500
X49250Y-39500
X53500Y-35750
X55000Y-45000
T3
X29663Y-40466
X29663Y-42434
T4
X32200Y-37281
X32200Y-39250
X38750Y-42100
X38750Y-43100
X41200Y-42100
X41200Y-43100
X43100Y-44900
X44100Y-44900
X45100Y-44900
X50000Y-43800
X51000Y-43800
X52000Y-43800
X52250Y-33750
X52250Y-34750
X52250Y-35750
X52250Y-36750
X52250Y-41000
X52250Y-42000
X53000Y-43800
X54750Y-35000
X54750Y-36000
X54750Y-37000
X54750Y-38000
X54750Y-39000
X54750Y-40000
X54750Y-41000
X54750Y-42000
X54750Y-43000
T2
G00X28738Y-40072
M15
G01X28462Y-40072
M16
G05
G00X28738Y-42828
M15
G01X28462Y-42828
M16
G05
T0
M30
