M48
; DRILL file {KiCad (5.1.9)-1} date 04/09/21 17:12:23
; FORMAT={-:-/ absolute / inch / decimal}
; #@! TF.CreationDate,2021-04-09T17:12:23+02:00
; #@! TF.GenerationSoftware,Kicad,Pcbnew,(5.1.9)-1
; #@! TF.FileFunction,Plated,1,2,PTH
FMAT,2
INCH
T1C0.0079
T2C0.0197
T3C0.0236
T4C0.0335
T5C0.0394
T6C0.1260
%
G90
G05
T1
X4.3784Y-3.5821
X4.3784Y-3.6543
X4.4145Y-3.5459
X4.4145Y-3.6182
X4.4145Y-3.6904
X4.4506Y-3.5821
X4.4506Y-3.6543
X4.4868Y-3.5459
X4.4868Y-3.6182
X4.4868Y-3.6904
X4.5229Y-3.5821
X4.5229Y-3.6543
T2
X3.32Y-4.05
X3.325Y-3.325
X3.325Y-4.25
X3.535Y-4.48
X3.6Y-3.325
X3.6Y-3.525
X3.66Y-3.955
X3.66Y-4.48
X4.0Y-3.4
X4.025Y-3.625
X4.15Y-4.1
X4.2979Y-3.6729
X4.2979Y-3.8729
X4.3Y-3.375
X4.3Y-3.55
X4.3Y-3.799
X4.6Y-3.91
X4.7Y-3.91
X4.875Y-4.2
X4.875Y-4.475
X4.9229Y-3.4229
X4.9229Y-3.5729
X4.925Y-3.85
X4.925Y-3.95
X5.35Y-3.575
X5.5Y-4.5
T4
X2.9663Y-4.0466
X2.9663Y-4.2434
T5
X3.22Y-3.7281
X3.22Y-3.925
X3.875Y-4.21
X3.875Y-4.31
X4.12Y-4.21
X4.12Y-4.31
X4.31Y-4.49
X4.41Y-4.49
X4.51Y-4.49
X5.0Y-4.38
X5.1Y-4.38
X5.2Y-4.38
X5.225Y-3.375
X5.225Y-3.475
X5.225Y-3.575
X5.225Y-3.675
X5.225Y-4.1
X5.225Y-4.2
X5.3Y-4.38
X5.475Y-3.5
X5.475Y-3.6
X5.475Y-3.7
X5.475Y-3.8
X5.475Y-3.9
X5.475Y-4.0
X5.475Y-4.1
X5.475Y-4.2
X5.475Y-4.3
T6
X2.96Y-3.38
X2.96Y-4.44
X5.7Y-3.38
X5.7Y-4.44
T3
G00X2.8738Y-4.0072
M15
G01X2.8462Y-4.0072
M16
G05
G00X2.8738Y-4.2828
M15
G01X2.8462Y-4.2828
M16
G05
T0
M30
