%TF.GenerationSoftware,KiCad,Pcbnew,(5.1.9)-1*%
%TF.CreationDate,2021-04-09T14:08:34+02:00*%
%TF.ProjectId,mainboard,6d61696e-626f-4617-9264-2e6b69636164,rev?*%
%TF.SameCoordinates,Original*%
%TF.FileFunction,Paste,Top*%
%TF.FilePolarity,Positive*%
%FSLAX46Y46*%
G04 Gerber Fmt 4.6, Leading zero omitted, Abs format (unit mm)*
G04 Created by KiCad (PCBNEW (5.1.9)-1) date 2021-04-09 14:08:34*
%MOMM*%
%LPD*%
G01*
G04 APERTURE LIST*
%ADD10C,0.000100*%
%ADD11C,0.010000*%
%ADD12R,1.340000X3.020000*%
%ADD13R,1.330000X1.330000*%
%ADD14R,2.000000X0.900000*%
%ADD15R,0.900000X2.000000*%
%ADD16R,0.797560X0.998220*%
%ADD17R,0.599440X0.998220*%
%ADD18R,1.498600X0.698500*%
%ADD19R,1.350000X0.400000*%
%ADD20R,1.900000X1.500000*%
%ADD21R,3.020000X0.970000*%
%ADD22R,0.600000X1.600000*%
%ADD23R,2.300000X1.500000*%
%ADD24R,1.500000X2.300000*%
%ADD25R,2.000000X1.500000*%
%ADD26R,2.000000X3.800000*%
G04 APERTURE END LIST*
D10*
%TO.C,J1*%
G36*
X73594000Y-108783000D02*
G01*
X73594000Y-107583000D01*
X71694000Y-107583000D01*
X71694000Y-108783000D01*
X71694651Y-108807860D01*
X71696602Y-108832651D01*
X71699848Y-108857306D01*
X71704380Y-108881758D01*
X71710185Y-108905939D01*
X71717248Y-108929783D01*
X71725549Y-108953225D01*
X71735066Y-108976200D01*
X71745772Y-108998645D01*
X71757638Y-109020500D01*
X71770631Y-109041704D01*
X71784717Y-109062198D01*
X71799856Y-109081927D01*
X71816006Y-109100837D01*
X71833124Y-109118876D01*
X71851163Y-109135994D01*
X71870073Y-109152144D01*
X71889802Y-109167283D01*
X71910296Y-109181369D01*
X71931500Y-109194362D01*
X71953355Y-109206228D01*
X71975800Y-109216934D01*
X71998775Y-109226451D01*
X72022217Y-109234752D01*
X72046061Y-109241815D01*
X72070242Y-109247620D01*
X72094694Y-109252152D01*
X72119349Y-109255398D01*
X72144140Y-109257349D01*
X72169000Y-109258000D01*
X73119000Y-109258000D01*
X73143860Y-109257349D01*
X73168651Y-109255398D01*
X73193306Y-109252152D01*
X73217758Y-109247620D01*
X73241939Y-109241815D01*
X73265783Y-109234752D01*
X73289225Y-109226451D01*
X73312200Y-109216934D01*
X73334645Y-109206228D01*
X73356500Y-109194362D01*
X73377704Y-109181369D01*
X73398198Y-109167283D01*
X73417927Y-109152144D01*
X73436837Y-109135994D01*
X73454876Y-109118876D01*
X73471994Y-109100837D01*
X73488144Y-109081927D01*
X73503283Y-109062198D01*
X73517369Y-109041704D01*
X73530362Y-109020500D01*
X73542228Y-108998645D01*
X73552934Y-108976200D01*
X73562451Y-108953225D01*
X73570752Y-108929783D01*
X73577815Y-108905939D01*
X73583620Y-108881758D01*
X73588152Y-108857306D01*
X73591398Y-108832651D01*
X73593349Y-108807860D01*
X73594000Y-108783000D01*
G37*
X73594000Y-108783000D02*
X73594000Y-107583000D01*
X71694000Y-107583000D01*
X71694000Y-108783000D01*
X71694651Y-108807860D01*
X71696602Y-108832651D01*
X71699848Y-108857306D01*
X71704380Y-108881758D01*
X71710185Y-108905939D01*
X71717248Y-108929783D01*
X71725549Y-108953225D01*
X71735066Y-108976200D01*
X71745772Y-108998645D01*
X71757638Y-109020500D01*
X71770631Y-109041704D01*
X71784717Y-109062198D01*
X71799856Y-109081927D01*
X71816006Y-109100837D01*
X71833124Y-109118876D01*
X71851163Y-109135994D01*
X71870073Y-109152144D01*
X71889802Y-109167283D01*
X71910296Y-109181369D01*
X71931500Y-109194362D01*
X71953355Y-109206228D01*
X71975800Y-109216934D01*
X71998775Y-109226451D01*
X72022217Y-109234752D01*
X72046061Y-109241815D01*
X72070242Y-109247620D01*
X72094694Y-109252152D01*
X72119349Y-109255398D01*
X72144140Y-109257349D01*
X72169000Y-109258000D01*
X73119000Y-109258000D01*
X73143860Y-109257349D01*
X73168651Y-109255398D01*
X73193306Y-109252152D01*
X73217758Y-109247620D01*
X73241939Y-109241815D01*
X73265783Y-109234752D01*
X73289225Y-109226451D01*
X73312200Y-109216934D01*
X73334645Y-109206228D01*
X73356500Y-109194362D01*
X73377704Y-109181369D01*
X73398198Y-109167283D01*
X73417927Y-109152144D01*
X73436837Y-109135994D01*
X73454876Y-109118876D01*
X73471994Y-109100837D01*
X73488144Y-109081927D01*
X73503283Y-109062198D01*
X73517369Y-109041704D01*
X73530362Y-109020500D01*
X73542228Y-108998645D01*
X73552934Y-108976200D01*
X73562451Y-108953225D01*
X73570752Y-108929783D01*
X73577815Y-108905939D01*
X73583620Y-108881758D01*
X73588152Y-108857306D01*
X73591398Y-108832651D01*
X73593349Y-108807860D01*
X73594000Y-108783000D01*
G36*
X73594000Y-101783000D02*
G01*
X73594000Y-102983000D01*
X71694000Y-102983000D01*
X71694000Y-101783000D01*
X71694651Y-101758140D01*
X71696602Y-101733349D01*
X71699848Y-101708694D01*
X71704380Y-101684242D01*
X71710185Y-101660061D01*
X71717248Y-101636217D01*
X71725549Y-101612775D01*
X71735066Y-101589800D01*
X71745772Y-101567355D01*
X71757638Y-101545500D01*
X71770631Y-101524296D01*
X71784717Y-101503802D01*
X71799856Y-101484073D01*
X71816006Y-101465163D01*
X71833124Y-101447124D01*
X71851163Y-101430006D01*
X71870073Y-101413856D01*
X71889802Y-101398717D01*
X71910296Y-101384631D01*
X71931500Y-101371638D01*
X71953355Y-101359772D01*
X71975800Y-101349066D01*
X71998775Y-101339549D01*
X72022217Y-101331248D01*
X72046061Y-101324185D01*
X72070242Y-101318380D01*
X72094694Y-101313848D01*
X72119349Y-101310602D01*
X72144140Y-101308651D01*
X72169000Y-101308000D01*
X73119000Y-101308000D01*
X73143860Y-101308651D01*
X73168651Y-101310602D01*
X73193306Y-101313848D01*
X73217758Y-101318380D01*
X73241939Y-101324185D01*
X73265783Y-101331248D01*
X73289225Y-101339549D01*
X73312200Y-101349066D01*
X73334645Y-101359772D01*
X73356500Y-101371638D01*
X73377704Y-101384631D01*
X73398198Y-101398717D01*
X73417927Y-101413856D01*
X73436837Y-101430006D01*
X73454876Y-101447124D01*
X73471994Y-101465163D01*
X73488144Y-101484073D01*
X73503283Y-101503802D01*
X73517369Y-101524296D01*
X73530362Y-101545500D01*
X73542228Y-101567355D01*
X73552934Y-101589800D01*
X73562451Y-101612775D01*
X73570752Y-101636217D01*
X73577815Y-101660061D01*
X73583620Y-101684242D01*
X73588152Y-101708694D01*
X73591398Y-101733349D01*
X73593349Y-101758140D01*
X73594000Y-101783000D01*
G37*
X73594000Y-101783000D02*
X73594000Y-102983000D01*
X71694000Y-102983000D01*
X71694000Y-101783000D01*
X71694651Y-101758140D01*
X71696602Y-101733349D01*
X71699848Y-101708694D01*
X71704380Y-101684242D01*
X71710185Y-101660061D01*
X71717248Y-101636217D01*
X71725549Y-101612775D01*
X71735066Y-101589800D01*
X71745772Y-101567355D01*
X71757638Y-101545500D01*
X71770631Y-101524296D01*
X71784717Y-101503802D01*
X71799856Y-101484073D01*
X71816006Y-101465163D01*
X71833124Y-101447124D01*
X71851163Y-101430006D01*
X71870073Y-101413856D01*
X71889802Y-101398717D01*
X71910296Y-101384631D01*
X71931500Y-101371638D01*
X71953355Y-101359772D01*
X71975800Y-101349066D01*
X71998775Y-101339549D01*
X72022217Y-101331248D01*
X72046061Y-101324185D01*
X72070242Y-101318380D01*
X72094694Y-101313848D01*
X72119349Y-101310602D01*
X72144140Y-101308651D01*
X72169000Y-101308000D01*
X73119000Y-101308000D01*
X73143860Y-101308651D01*
X73168651Y-101310602D01*
X73193306Y-101313848D01*
X73217758Y-101318380D01*
X73241939Y-101324185D01*
X73265783Y-101331248D01*
X73289225Y-101339549D01*
X73312200Y-101349066D01*
X73334645Y-101359772D01*
X73356500Y-101371638D01*
X73377704Y-101384631D01*
X73398198Y-101398717D01*
X73417927Y-101413856D01*
X73436837Y-101430006D01*
X73454876Y-101447124D01*
X73471994Y-101465163D01*
X73488144Y-101484073D01*
X73503283Y-101503802D01*
X73517369Y-101524296D01*
X73530362Y-101545500D01*
X73542228Y-101567355D01*
X73552934Y-101589800D01*
X73562451Y-101612775D01*
X73570752Y-101636217D01*
X73577815Y-101660061D01*
X73583620Y-101684242D01*
X73588152Y-101708694D01*
X73591398Y-101733349D01*
X73593349Y-101758140D01*
X73594000Y-101783000D01*
D11*
%TO.C,Q1*%
G36*
X111920000Y-107400000D02*
G01*
X111920000Y-105680000D01*
X113280000Y-105680000D01*
X113280000Y-107400000D01*
X111920000Y-107400000D01*
G37*
X111920000Y-107400000D02*
X111920000Y-105680000D01*
X113280000Y-105680000D01*
X113280000Y-107400000D01*
X111920000Y-107400000D01*
G36*
X109810000Y-107400000D02*
G01*
X109810000Y-105680000D01*
X111170000Y-105680000D01*
X111170000Y-107400000D01*
X109810000Y-107400000D01*
G37*
X109810000Y-107400000D02*
X109810000Y-105680000D01*
X111170000Y-105680000D01*
X111170000Y-107400000D01*
X109810000Y-107400000D01*
G36*
X107700000Y-107400000D02*
G01*
X107700000Y-105680000D01*
X109060000Y-105680000D01*
X109060000Y-107400000D01*
X107700000Y-107400000D01*
G37*
X107700000Y-107400000D02*
X107700000Y-105680000D01*
X109060000Y-105680000D01*
X109060000Y-107400000D01*
X107700000Y-107400000D01*
G36*
X111920000Y-110220000D02*
G01*
X111920000Y-108500000D01*
X113280000Y-108500000D01*
X113280000Y-110220000D01*
X111920000Y-110220000D01*
G37*
X111920000Y-110220000D02*
X111920000Y-108500000D01*
X113280000Y-108500000D01*
X113280000Y-110220000D01*
X111920000Y-110220000D01*
G36*
X109810000Y-110220000D02*
G01*
X109810000Y-108500000D01*
X111170000Y-108500000D01*
X111170000Y-110220000D01*
X109810000Y-110220000D01*
G37*
X109810000Y-110220000D02*
X109810000Y-108500000D01*
X111170000Y-108500000D01*
X111170000Y-110220000D01*
X109810000Y-110220000D01*
G36*
X107700000Y-110220000D02*
G01*
X107700000Y-108500000D01*
X109060000Y-108500000D01*
X109060000Y-110220000D01*
X107700000Y-110220000D01*
G37*
X107700000Y-110220000D02*
X107700000Y-108500000D01*
X109060000Y-108500000D01*
X109060000Y-110220000D01*
X107700000Y-110220000D01*
%TD*%
%TO.C,D2*%
G36*
G01*
X102050001Y-107500000D02*
X101149999Y-107500000D01*
G75*
G02*
X100900000Y-107250001I0J249999D01*
G01*
X100900000Y-106599999D01*
G75*
G02*
X101149999Y-106350000I249999J0D01*
G01*
X102050001Y-106350000D01*
G75*
G02*
X102300000Y-106599999I0J-249999D01*
G01*
X102300000Y-107250001D01*
G75*
G02*
X102050001Y-107500000I-249999J0D01*
G01*
G37*
G36*
G01*
X102050001Y-109550000D02*
X101149999Y-109550000D01*
G75*
G02*
X100900000Y-109300001I0J249999D01*
G01*
X100900000Y-108649999D01*
G75*
G02*
X101149999Y-108400000I249999J0D01*
G01*
X102050001Y-108400000D01*
G75*
G02*
X102300000Y-108649999I0J-249999D01*
G01*
X102300000Y-109300001D01*
G75*
G02*
X102050001Y-109550000I-249999J0D01*
G01*
G37*
%TD*%
%TO.C,R9*%
G36*
G01*
X118345000Y-114484999D02*
X118345000Y-115385001D01*
G75*
G02*
X118095001Y-115635000I-249999J0D01*
G01*
X117394999Y-115635000D01*
G75*
G02*
X117145000Y-115385001I0J249999D01*
G01*
X117145000Y-114484999D01*
G75*
G02*
X117394999Y-114235000I249999J0D01*
G01*
X118095001Y-114235000D01*
G75*
G02*
X118345000Y-114484999I0J-249999D01*
G01*
G37*
G36*
G01*
X120345000Y-114484999D02*
X120345000Y-115385001D01*
G75*
G02*
X120095001Y-115635000I-249999J0D01*
G01*
X119394999Y-115635000D01*
G75*
G02*
X119145000Y-115385001I0J249999D01*
G01*
X119145000Y-114484999D01*
G75*
G02*
X119394999Y-114235000I249999J0D01*
G01*
X120095001Y-114235000D01*
G75*
G02*
X120345000Y-114484999I0J-249999D01*
G01*
G37*
%TD*%
D12*
%TO.C,C8*%
X82280000Y-89535000D03*
X85360000Y-89535000D03*
%TD*%
D13*
%TO.C,U1*%
X114881000Y-93737000D03*
X113046000Y-93737000D03*
X111211000Y-93737000D03*
X114881000Y-91902000D03*
X113046000Y-91902000D03*
X111211000Y-91902000D03*
X114881000Y-90067000D03*
X113046000Y-90067000D03*
X111211000Y-90067000D03*
D14*
X122546000Y-84402000D03*
X122546000Y-85672000D03*
X122546000Y-86942000D03*
X122546000Y-88212000D03*
X122546000Y-89482000D03*
X122546000Y-90752000D03*
X122546000Y-92022000D03*
X122546000Y-93292000D03*
X122546000Y-94562000D03*
X122546000Y-95832000D03*
X122546000Y-97102000D03*
X122546000Y-98372000D03*
X122546000Y-99642000D03*
X122546000Y-100912000D03*
D15*
X119761000Y-101912000D03*
X118491000Y-101912000D03*
X117221000Y-101912000D03*
X115951000Y-101912000D03*
X114681000Y-101912000D03*
X113411000Y-101912000D03*
X112141000Y-101912000D03*
X110871000Y-101912000D03*
X109601000Y-101912000D03*
X108331000Y-101912000D03*
D14*
X105546000Y-100912000D03*
X105546000Y-99642000D03*
X105546000Y-98372000D03*
X105546000Y-97102000D03*
X105546000Y-95832000D03*
X105546000Y-94562000D03*
X105546000Y-93292000D03*
X105546000Y-92022000D03*
X105546000Y-90752000D03*
X105546000Y-89482000D03*
X105546000Y-88212000D03*
X105546000Y-86942000D03*
X105546000Y-85672000D03*
X105546000Y-84402000D03*
%TD*%
D16*
%TO.C,S3*%
X74124820Y-90965020D03*
D17*
X72026780Y-90965020D03*
D16*
X74124820Y-98264980D03*
D17*
X72026780Y-98264980D03*
D18*
X74772520Y-92367100D03*
X74772520Y-95364300D03*
X74772520Y-96862900D03*
%TD*%
D19*
%TO.C,J1*%
X75319000Y-106583000D03*
X75319000Y-105933000D03*
X75319000Y-105283000D03*
X75319000Y-104633000D03*
X75319000Y-103983000D03*
D20*
X72644000Y-106283000D03*
X72644000Y-104283000D03*
%TD*%
%TO.C,D1*%
G36*
G01*
X101150000Y-101784999D02*
X101150000Y-102685001D01*
G75*
G02*
X100900001Y-102935000I-249999J0D01*
G01*
X100249999Y-102935000D01*
G75*
G02*
X100000000Y-102685001I0J249999D01*
G01*
X100000000Y-101784999D01*
G75*
G02*
X100249999Y-101535000I249999J0D01*
G01*
X100900001Y-101535000D01*
G75*
G02*
X101150000Y-101784999I0J-249999D01*
G01*
G37*
G36*
G01*
X103200000Y-101784999D02*
X103200000Y-102685001D01*
G75*
G02*
X102950001Y-102935000I-249999J0D01*
G01*
X102299999Y-102935000D01*
G75*
G02*
X102050000Y-102685001I0J249999D01*
G01*
X102050000Y-101784999D01*
G75*
G02*
X102299999Y-101535000I249999J0D01*
G01*
X102950001Y-101535000D01*
G75*
G02*
X103200000Y-101784999I0J-249999D01*
G01*
G37*
%TD*%
%TO.C,R8*%
G36*
G01*
X102000000Y-100145001D02*
X102000000Y-99244999D01*
G75*
G02*
X102249999Y-98995000I249999J0D01*
G01*
X102950001Y-98995000D01*
G75*
G02*
X103200000Y-99244999I0J-249999D01*
G01*
X103200000Y-100145001D01*
G75*
G02*
X102950001Y-100395000I-249999J0D01*
G01*
X102249999Y-100395000D01*
G75*
G02*
X102000000Y-100145001I0J249999D01*
G01*
G37*
G36*
G01*
X100000000Y-100145001D02*
X100000000Y-99244999D01*
G75*
G02*
X100249999Y-98995000I249999J0D01*
G01*
X100950001Y-98995000D01*
G75*
G02*
X101200000Y-99244999I0J-249999D01*
G01*
X101200000Y-100145001D01*
G75*
G02*
X100950001Y-100395000I-249999J0D01*
G01*
X100249999Y-100395000D01*
G75*
G02*
X100000000Y-100145001I0J249999D01*
G01*
G37*
%TD*%
%TO.C,C10*%
G36*
G01*
X79168500Y-90518000D02*
X79168500Y-89568000D01*
G75*
G02*
X79418500Y-89318000I250000J0D01*
G01*
X80093500Y-89318000D01*
G75*
G02*
X80343500Y-89568000I0J-250000D01*
G01*
X80343500Y-90518000D01*
G75*
G02*
X80093500Y-90768000I-250000J0D01*
G01*
X79418500Y-90768000D01*
G75*
G02*
X79168500Y-90518000I0J250000D01*
G01*
G37*
G36*
G01*
X77093500Y-90518000D02*
X77093500Y-89568000D01*
G75*
G02*
X77343500Y-89318000I250000J0D01*
G01*
X78018500Y-89318000D01*
G75*
G02*
X78268500Y-89568000I0J-250000D01*
G01*
X78268500Y-90518000D01*
G75*
G02*
X78018500Y-90768000I-250000J0D01*
G01*
X77343500Y-90768000D01*
G75*
G02*
X77093500Y-90518000I0J250000D01*
G01*
G37*
%TD*%
%TO.C,R7*%
G36*
G01*
X102685001Y-94215000D02*
X101784999Y-94215000D01*
G75*
G02*
X101535000Y-93965001I0J249999D01*
G01*
X101535000Y-93264999D01*
G75*
G02*
X101784999Y-93015000I249999J0D01*
G01*
X102685001Y-93015000D01*
G75*
G02*
X102935000Y-93264999I0J-249999D01*
G01*
X102935000Y-93965001D01*
G75*
G02*
X102685001Y-94215000I-249999J0D01*
G01*
G37*
G36*
G01*
X102685001Y-96215000D02*
X101784999Y-96215000D01*
G75*
G02*
X101535000Y-95965001I0J249999D01*
G01*
X101535000Y-95264999D01*
G75*
G02*
X101784999Y-95015000I249999J0D01*
G01*
X102685001Y-95015000D01*
G75*
G02*
X102935000Y-95264999I0J-249999D01*
G01*
X102935000Y-95965001D01*
G75*
G02*
X102685001Y-96215000I-249999J0D01*
G01*
G37*
%TD*%
%TO.C,R6*%
G36*
G01*
X127870000Y-99879999D02*
X127870000Y-100780001D01*
G75*
G02*
X127620001Y-101030000I-249999J0D01*
G01*
X126919999Y-101030000D01*
G75*
G02*
X126670000Y-100780001I0J249999D01*
G01*
X126670000Y-99879999D01*
G75*
G02*
X126919999Y-99630000I249999J0D01*
G01*
X127620001Y-99630000D01*
G75*
G02*
X127870000Y-99879999I0J-249999D01*
G01*
G37*
G36*
G01*
X129870000Y-99879999D02*
X129870000Y-100780001D01*
G75*
G02*
X129620001Y-101030000I-249999J0D01*
G01*
X128919999Y-101030000D01*
G75*
G02*
X128670000Y-100780001I0J249999D01*
G01*
X128670000Y-99879999D01*
G75*
G02*
X128919999Y-99630000I249999J0D01*
G01*
X129620001Y-99630000D01*
G75*
G02*
X129870000Y-99879999I0J-249999D01*
G01*
G37*
%TD*%
%TO.C,C2*%
G36*
G01*
X98642500Y-84930000D02*
X98642500Y-83980000D01*
G75*
G02*
X98892500Y-83730000I250000J0D01*
G01*
X99567500Y-83730000D01*
G75*
G02*
X99817500Y-83980000I0J-250000D01*
G01*
X99817500Y-84930000D01*
G75*
G02*
X99567500Y-85180000I-250000J0D01*
G01*
X98892500Y-85180000D01*
G75*
G02*
X98642500Y-84930000I0J250000D01*
G01*
G37*
G36*
G01*
X96567500Y-84930000D02*
X96567500Y-83980000D01*
G75*
G02*
X96817500Y-83730000I250000J0D01*
G01*
X97492500Y-83730000D01*
G75*
G02*
X97742500Y-83980000I0J-250000D01*
G01*
X97742500Y-84930000D01*
G75*
G02*
X97492500Y-85180000I-250000J0D01*
G01*
X96817500Y-85180000D01*
G75*
G02*
X96567500Y-84930000I0J250000D01*
G01*
G37*
%TD*%
%TO.C,R5*%
G36*
G01*
X121735001Y-110344000D02*
X120834999Y-110344000D01*
G75*
G02*
X120585000Y-110094001I0J249999D01*
G01*
X120585000Y-109393999D01*
G75*
G02*
X120834999Y-109144000I249999J0D01*
G01*
X121735001Y-109144000D01*
G75*
G02*
X121985000Y-109393999I0J-249999D01*
G01*
X121985000Y-110094001D01*
G75*
G02*
X121735001Y-110344000I-249999J0D01*
G01*
G37*
G36*
G01*
X121735001Y-112344000D02*
X120834999Y-112344000D01*
G75*
G02*
X120585000Y-112094001I0J249999D01*
G01*
X120585000Y-111393999D01*
G75*
G02*
X120834999Y-111144000I249999J0D01*
G01*
X121735001Y-111144000D01*
G75*
G02*
X121985000Y-111393999I0J-249999D01*
G01*
X121985000Y-112094001D01*
G75*
G02*
X121735001Y-112344000I-249999J0D01*
G01*
G37*
%TD*%
%TO.C,C1*%
G36*
G01*
X102075000Y-88450000D02*
X101125000Y-88450000D01*
G75*
G02*
X100875000Y-88200000I0J250000D01*
G01*
X100875000Y-87525000D01*
G75*
G02*
X101125000Y-87275000I250000J0D01*
G01*
X102075000Y-87275000D01*
G75*
G02*
X102325000Y-87525000I0J-250000D01*
G01*
X102325000Y-88200000D01*
G75*
G02*
X102075000Y-88450000I-250000J0D01*
G01*
G37*
G36*
G01*
X102075000Y-90525000D02*
X101125000Y-90525000D01*
G75*
G02*
X100875000Y-90275000I0J250000D01*
G01*
X100875000Y-89600000D01*
G75*
G02*
X101125000Y-89350000I250000J0D01*
G01*
X102075000Y-89350000D01*
G75*
G02*
X102325000Y-89600000I0J-250000D01*
G01*
X102325000Y-90275000D01*
G75*
G02*
X102075000Y-90525000I-250000J0D01*
G01*
G37*
%TD*%
D21*
%TO.C,Q1*%
X117020000Y-105664000D03*
X117020000Y-110236000D03*
%TD*%
%TO.C,R4*%
G36*
G01*
X126076000Y-102673999D02*
X126076000Y-103574001D01*
G75*
G02*
X125826001Y-103824000I-249999J0D01*
G01*
X125125999Y-103824000D01*
G75*
G02*
X124876000Y-103574001I0J249999D01*
G01*
X124876000Y-102673999D01*
G75*
G02*
X125125999Y-102424000I249999J0D01*
G01*
X125826001Y-102424000D01*
G75*
G02*
X126076000Y-102673999I0J-249999D01*
G01*
G37*
G36*
G01*
X128076000Y-102673999D02*
X128076000Y-103574001D01*
G75*
G02*
X127826001Y-103824000I-249999J0D01*
G01*
X127125999Y-103824000D01*
G75*
G02*
X126876000Y-103574001I0J249999D01*
G01*
X126876000Y-102673999D01*
G75*
G02*
X127125999Y-102424000I249999J0D01*
G01*
X127826001Y-102424000D01*
G75*
G02*
X128076000Y-102673999I0J-249999D01*
G01*
G37*
%TD*%
%TO.C,R2*%
G36*
G01*
X123374999Y-111144000D02*
X124275001Y-111144000D01*
G75*
G02*
X124525000Y-111393999I0J-249999D01*
G01*
X124525000Y-112094001D01*
G75*
G02*
X124275001Y-112344000I-249999J0D01*
G01*
X123374999Y-112344000D01*
G75*
G02*
X123125000Y-112094001I0J249999D01*
G01*
X123125000Y-111393999D01*
G75*
G02*
X123374999Y-111144000I249999J0D01*
G01*
G37*
G36*
G01*
X123374999Y-109144000D02*
X124275001Y-109144000D01*
G75*
G02*
X124525000Y-109393999I0J-249999D01*
G01*
X124525000Y-110094001D01*
G75*
G02*
X124275001Y-110344000I-249999J0D01*
G01*
X123374999Y-110344000D01*
G75*
G02*
X123125000Y-110094001I0J249999D01*
G01*
X123125000Y-109393999D01*
G75*
G02*
X123374999Y-109144000I249999J0D01*
G01*
G37*
%TD*%
D22*
%TO.C,U4*%
X94869000Y-109634000D03*
X93599000Y-109634000D03*
X92329000Y-109634000D03*
X91059000Y-109634000D03*
X89789000Y-109634000D03*
X88519000Y-109634000D03*
X87249000Y-109634000D03*
X85979000Y-109634000D03*
X85979000Y-104234000D03*
X87249000Y-104234000D03*
X88519000Y-104234000D03*
X89789000Y-104234000D03*
X91059000Y-104234000D03*
X92329000Y-104234000D03*
X93599000Y-104234000D03*
X94869000Y-104234000D03*
%TD*%
D23*
%TO.C,BT*%
X127556000Y-106426000D03*
X120856000Y-106426000D03*
%TD*%
D24*
%TO.C,EN*%
X97155000Y-99600760D03*
X97155000Y-92900760D03*
%TD*%
D25*
%TO.C,U3*%
X88290000Y-85076000D03*
X88290000Y-89676000D03*
X88290000Y-87376000D03*
D26*
X94590000Y-87376000D03*
%TD*%
%TO.C,R3*%
G36*
G01*
X80864000Y-108007999D02*
X80864000Y-108908001D01*
G75*
G02*
X80614001Y-109158000I-249999J0D01*
G01*
X79913999Y-109158000D01*
G75*
G02*
X79664000Y-108908001I0J249999D01*
G01*
X79664000Y-108007999D01*
G75*
G02*
X79913999Y-107758000I249999J0D01*
G01*
X80614001Y-107758000D01*
G75*
G02*
X80864000Y-108007999I0J-249999D01*
G01*
G37*
G36*
G01*
X82864000Y-108007999D02*
X82864000Y-108908001D01*
G75*
G02*
X82614001Y-109158000I-249999J0D01*
G01*
X81913999Y-109158000D01*
G75*
G02*
X81664000Y-108908001I0J249999D01*
G01*
X81664000Y-108007999D01*
G75*
G02*
X81913999Y-107758000I249999J0D01*
G01*
X82614001Y-107758000D01*
G75*
G02*
X82864000Y-108007999I0J-249999D01*
G01*
G37*
%TD*%
%TO.C,R1*%
G36*
G01*
X98609999Y-89300000D02*
X99510001Y-89300000D01*
G75*
G02*
X99760000Y-89549999I0J-249999D01*
G01*
X99760000Y-90250001D01*
G75*
G02*
X99510001Y-90500000I-249999J0D01*
G01*
X98609999Y-90500000D01*
G75*
G02*
X98360000Y-90250001I0J249999D01*
G01*
X98360000Y-89549999D01*
G75*
G02*
X98609999Y-89300000I249999J0D01*
G01*
G37*
G36*
G01*
X98609999Y-87300000D02*
X99510001Y-87300000D01*
G75*
G02*
X99760000Y-87549999I0J-249999D01*
G01*
X99760000Y-88250001D01*
G75*
G02*
X99510001Y-88500000I-249999J0D01*
G01*
X98609999Y-88500000D01*
G75*
G02*
X98360000Y-88250001I0J249999D01*
G01*
X98360000Y-87549999D01*
G75*
G02*
X98609999Y-87300000I249999J0D01*
G01*
G37*
%TD*%
%TO.C,C9*%
G36*
G01*
X92235000Y-95805500D02*
X93185000Y-95805500D01*
G75*
G02*
X93435000Y-96055500I0J-250000D01*
G01*
X93435000Y-96730500D01*
G75*
G02*
X93185000Y-96980500I-250000J0D01*
G01*
X92235000Y-96980500D01*
G75*
G02*
X91985000Y-96730500I0J250000D01*
G01*
X91985000Y-96055500D01*
G75*
G02*
X92235000Y-95805500I250000J0D01*
G01*
G37*
G36*
G01*
X92235000Y-93730500D02*
X93185000Y-93730500D01*
G75*
G02*
X93435000Y-93980500I0J-250000D01*
G01*
X93435000Y-94655500D01*
G75*
G02*
X93185000Y-94905500I-250000J0D01*
G01*
X92235000Y-94905500D01*
G75*
G02*
X91985000Y-94655500I0J250000D01*
G01*
X91985000Y-93980500D01*
G75*
G02*
X92235000Y-93730500I250000J0D01*
G01*
G37*
%TD*%
%TO.C,C7*%
G36*
G01*
X88980000Y-93830000D02*
X88980000Y-94780000D01*
G75*
G02*
X88730000Y-95030000I-250000J0D01*
G01*
X88055000Y-95030000D01*
G75*
G02*
X87805000Y-94780000I0J250000D01*
G01*
X87805000Y-93830000D01*
G75*
G02*
X88055000Y-93580000I250000J0D01*
G01*
X88730000Y-93580000D01*
G75*
G02*
X88980000Y-93830000I0J-250000D01*
G01*
G37*
G36*
G01*
X91055000Y-93830000D02*
X91055000Y-94780000D01*
G75*
G02*
X90805000Y-95030000I-250000J0D01*
G01*
X90130000Y-95030000D01*
G75*
G02*
X89880000Y-94780000I0J250000D01*
G01*
X89880000Y-93830000D01*
G75*
G02*
X90130000Y-93580000I250000J0D01*
G01*
X90805000Y-93580000D01*
G75*
G02*
X91055000Y-93830000I0J-250000D01*
G01*
G37*
%TD*%
%TO.C,C6*%
G36*
G01*
X88987300Y-96222800D02*
X88987300Y-97172800D01*
G75*
G02*
X88737300Y-97422800I-250000J0D01*
G01*
X88062300Y-97422800D01*
G75*
G02*
X87812300Y-97172800I0J250000D01*
G01*
X87812300Y-96222800D01*
G75*
G02*
X88062300Y-95972800I250000J0D01*
G01*
X88737300Y-95972800D01*
G75*
G02*
X88987300Y-96222800I0J-250000D01*
G01*
G37*
G36*
G01*
X91062300Y-96222800D02*
X91062300Y-97172800D01*
G75*
G02*
X90812300Y-97422800I-250000J0D01*
G01*
X90137300Y-97422800D01*
G75*
G02*
X89887300Y-97172800I0J250000D01*
G01*
X89887300Y-96222800D01*
G75*
G02*
X90137300Y-95972800I250000J0D01*
G01*
X90812300Y-95972800D01*
G75*
G02*
X91062300Y-96222800I0J-250000D01*
G01*
G37*
%TD*%
%TO.C,C5*%
G36*
G01*
X89244500Y-100678000D02*
X89244500Y-99728000D01*
G75*
G02*
X89494500Y-99478000I250000J0D01*
G01*
X90169500Y-99478000D01*
G75*
G02*
X90419500Y-99728000I0J-250000D01*
G01*
X90419500Y-100678000D01*
G75*
G02*
X90169500Y-100928000I-250000J0D01*
G01*
X89494500Y-100928000D01*
G75*
G02*
X89244500Y-100678000I0J250000D01*
G01*
G37*
G36*
G01*
X87169500Y-100678000D02*
X87169500Y-99728000D01*
G75*
G02*
X87419500Y-99478000I250000J0D01*
G01*
X88094500Y-99478000D01*
G75*
G02*
X88344500Y-99728000I0J-250000D01*
G01*
X88344500Y-100678000D01*
G75*
G02*
X88094500Y-100928000I-250000J0D01*
G01*
X87419500Y-100928000D01*
G75*
G02*
X87169500Y-100678000I0J250000D01*
G01*
G37*
%TD*%
%TO.C,C4*%
G36*
G01*
X81751500Y-106393000D02*
X81751500Y-105443000D01*
G75*
G02*
X82001500Y-105193000I250000J0D01*
G01*
X82676500Y-105193000D01*
G75*
G02*
X82926500Y-105443000I0J-250000D01*
G01*
X82926500Y-106393000D01*
G75*
G02*
X82676500Y-106643000I-250000J0D01*
G01*
X82001500Y-106643000D01*
G75*
G02*
X81751500Y-106393000I0J250000D01*
G01*
G37*
G36*
G01*
X79676500Y-106393000D02*
X79676500Y-105443000D01*
G75*
G02*
X79926500Y-105193000I250000J0D01*
G01*
X80601500Y-105193000D01*
G75*
G02*
X80851500Y-105443000I0J-250000D01*
G01*
X80851500Y-106393000D01*
G75*
G02*
X80601500Y-106643000I-250000J0D01*
G01*
X79926500Y-106643000D01*
G75*
G02*
X79676500Y-106393000I0J250000D01*
G01*
G37*
%TD*%
M02*
