%TF.GenerationSoftware,KiCad,Pcbnew,(5.1.9)-1*%
%TF.CreationDate,2021-04-09T14:08:34+02:00*%
%TF.ProjectId,mainboard,6d61696e-626f-4617-9264-2e6b69636164,rev?*%
%TF.SameCoordinates,Original*%
%TF.FileFunction,Copper,L2,Bot*%
%TF.FilePolarity,Positive*%
%FSLAX46Y46*%
G04 Gerber Fmt 4.6, Leading zero omitted, Abs format (unit mm)*
G04 Created by KiCad (PCBNEW (5.1.9)-1) date 2021-04-09 14:08:34*
%MOMM*%
%LPD*%
G01*
G04 APERTURE LIST*
%TA.AperFunction,ComponentPad*%
%ADD10O,1.700000X1.700000*%
%TD*%
%TA.AperFunction,ComponentPad*%
%ADD11R,1.700000X1.700000*%
%TD*%
%TA.AperFunction,ComponentPad*%
%ADD12C,2.000000*%
%TD*%
%TA.AperFunction,ComponentPad*%
%ADD13R,2.000000X2.000000*%
%TD*%
%TA.AperFunction,ComponentPad*%
%ADD14C,0.300000*%
%TD*%
%TA.AperFunction,ComponentPad*%
%ADD15C,1.450000*%
%TD*%
%TA.AperFunction,ComponentPad*%
%ADD16O,1.900000X0.950000*%
%TD*%
%TA.AperFunction,ViaPad*%
%ADD17C,1.500000*%
%TD*%
%TA.AperFunction,Conductor*%
%ADD18C,0.635000*%
%TD*%
%TA.AperFunction,Conductor*%
%ADD19C,0.254000*%
%TD*%
%TA.AperFunction,Conductor*%
%ADD20C,0.100000*%
%TD*%
G04 APERTURE END LIST*
D10*
%TO.P,J7,4*%
%TO.N,SDA*%
X132715000Y-93345000D03*
%TO.P,J7,3*%
%TO.N,SCL*%
X132715000Y-90805000D03*
%TO.P,J7,2*%
%TO.N,GND*%
X132715000Y-88265000D03*
D11*
%TO.P,J7,1*%
%TO.N,3V3*%
X132715000Y-85725000D03*
%TD*%
D12*
%TO.P,C3,2*%
%TO.N,GND*%
X81788000Y-94695000D03*
D13*
%TO.P,C3,1*%
%TO.N,5V*%
X81788000Y-99695000D03*
%TD*%
D14*
%TO.P,U1,39_21*%
%TO.N,GND*%
X113963500Y-93737000D03*
%TO.P,U1,39_20*%
X112128500Y-93737000D03*
%TO.P,U1,39_19*%
X114881000Y-92819500D03*
%TO.P,U1,39_18*%
X113046000Y-92819500D03*
%TO.P,U1,39_17*%
X111211000Y-92819500D03*
%TO.P,U1,39_16*%
X113963500Y-91902000D03*
%TO.P,U1,39_15*%
X112128500Y-91902000D03*
%TO.P,U1,39_14*%
X114881000Y-90984500D03*
%TO.P,U1,39_13*%
X113046000Y-90984500D03*
%TO.P,U1,39_12*%
X111211000Y-90984500D03*
%TO.P,U1,39_11*%
X113963500Y-90067000D03*
%TO.P,U1,39_10*%
X112128500Y-90067000D03*
%TD*%
D15*
%TO.P,J1,S4*%
%TO.N,GND*%
X75344000Y-107783000D03*
%TO.P,J1,S3*%
X75344000Y-102783000D03*
D16*
%TO.P,J1,S2*%
X72644000Y-108783000D03*
%TO.P,J1,S1*%
X72644000Y-101783000D03*
%TD*%
D10*
%TO.P,J8,3*%
%TO.N,IRB*%
X109474000Y-114046000D03*
%TO.P,J8,2*%
%TO.N,GND*%
X112014000Y-114046000D03*
D11*
%TO.P,J8,1*%
%TO.N,3V3*%
X114554000Y-114046000D03*
%TD*%
D10*
%TO.P,J2,4*%
%TO.N,3V3*%
X127000000Y-111252000D03*
%TO.P,J2,3*%
%TO.N,GND*%
X129540000Y-111252000D03*
%TO.P,J2,2*%
%TO.N,TXD*%
X132080000Y-111252000D03*
D11*
%TO.P,J2,1*%
%TO.N,RXD*%
X134620000Y-111252000D03*
%TD*%
D10*
%TO.P,J6,2*%
%TO.N,PN532_IRQ*%
X132715000Y-106680000D03*
D11*
%TO.P,J6,1*%
%TO.N,PN532_RESET*%
X132715000Y-104140000D03*
%TD*%
D10*
%TO.P,SPR,2*%
%TO.N,+OUT_R*%
X98425000Y-106934000D03*
D11*
%TO.P,SPR,1*%
%TO.N,-OUT_R*%
X98425000Y-109474000D03*
%TD*%
D10*
%TO.P,J4,9*%
%TO.N,TFT_EN*%
X139065000Y-109220000D03*
%TO.P,J4,8*%
%TO.N,TFT_CLK*%
X139065000Y-106680000D03*
%TO.P,J4,7*%
%TO.N,TFT_MISO*%
X139065000Y-104140000D03*
%TO.P,J4,6*%
%TO.N,TFT_MOSI*%
X139065000Y-101600000D03*
%TO.P,J4,5*%
%TO.N,TFT_DC*%
X139065000Y-99060000D03*
%TO.P,J4,4*%
%TO.N,TFT_CS*%
X139065000Y-96520000D03*
%TO.P,J4,3*%
%TO.N,TFT_RST*%
X139065000Y-93980000D03*
%TO.P,J4,2*%
%TO.N,GND*%
X139065000Y-91440000D03*
D11*
%TO.P,J4,1*%
%TO.N,3V3*%
X139065000Y-88900000D03*
%TD*%
D10*
%TO.P,PMP,2*%
%TO.N,Mosfet_Out-*%
X104648000Y-106934000D03*
D11*
%TO.P,PMP,1*%
%TO.N,5V*%
X104648000Y-109474000D03*
%TD*%
D17*
%TO.N,3V3*%
X109220000Y-85725000D03*
%TO.N,TXD*%
X116840000Y-99314000D03*
X123825000Y-113665000D03*
%TO.N,RXD*%
X119380000Y-99314000D03*
%TO.N,5V*%
X92964000Y-100457000D03*
X92964000Y-113792000D03*
%TO.N,SHND*%
X89789000Y-113792000D03*
X102235000Y-92075000D03*
%TO.N,GND*%
X135890000Y-90805000D03*
X91440000Y-84455000D03*
X101600000Y-86360000D03*
X91440000Y-89535000D03*
X84328000Y-102870000D03*
X123825000Y-106680000D03*
X139700000Y-114300000D03*
X105410000Y-104140000D03*
X84455000Y-107950000D03*
X84455000Y-84455000D03*
%TO.N,TFT_DC*%
X109167000Y-98372000D03*
%TO.N,TFT_RST*%
X109167000Y-93292000D03*
%TO.N,TFT_CS*%
X109220000Y-96494600D03*
%TO.N,PN532_IRQ*%
X125095000Y-100330000D03*
%TO.N,IRB*%
X109220000Y-90170000D03*
%TO.N,SDA*%
X125042000Y-90752000D03*
%TO.N,SCL*%
X125042000Y-86942000D03*
%TO.N,TFT_EN*%
X125095000Y-97790000D03*
%TD*%
D18*
%TO.N,3V3*%
X114554000Y-114046000D02*
X115824000Y-115316000D01*
X127000000Y-113117902D02*
X127000000Y-111252000D01*
X124801902Y-115316000D02*
X127000000Y-113117902D01*
X115824000Y-115316000D02*
X124801902Y-115316000D01*
X132662000Y-85672000D02*
X132715000Y-85725000D01*
X109220000Y-85725000D02*
X109855000Y-85090000D01*
X132080000Y-85090000D02*
X132715000Y-85725000D01*
X109855000Y-85090000D02*
X132080000Y-85090000D01*
%TO.N,TXD*%
X123825000Y-113665000D02*
X118110000Y-107950000D01*
X116840000Y-106680000D02*
X118110000Y-107950000D01*
X116840000Y-99314000D02*
X116840000Y-99314000D01*
X116840000Y-99314000D02*
X116840000Y-106680000D01*
%TO.N,RXD*%
X134620000Y-109855000D02*
X134620000Y-111252000D01*
X133985000Y-109220000D02*
X134620000Y-109855000D01*
X130175000Y-109220000D02*
X133985000Y-109220000D01*
X120269000Y-99314000D02*
X130175000Y-109220000D01*
X119380000Y-99314000D02*
X119380000Y-99314000D01*
X119380000Y-99314000D02*
X120269000Y-99314000D01*
%TO.N,5V*%
X92964000Y-113792000D02*
X92964000Y-100457000D01*
%TO.N,SHND*%
X102235000Y-92075000D02*
X97155000Y-92075000D01*
X89789000Y-99441000D02*
X97155000Y-92075000D01*
X89789000Y-113792000D02*
X89789000Y-99441000D01*
%TO.N,GND*%
X129540000Y-111252000D02*
X129540000Y-110744000D01*
X129540000Y-110744000D02*
X128524000Y-109728000D01*
%TO.N,TFT_DC*%
X123190000Y-95250000D02*
X120650000Y-97790000D01*
X127000000Y-95250000D02*
X123190000Y-95250000D01*
X130810000Y-99060000D02*
X127000000Y-95250000D01*
X139065000Y-99060000D02*
X130810000Y-99060000D01*
X109167000Y-98372000D02*
X109167000Y-98372000D01*
X112395000Y-97790000D02*
X120650000Y-97790000D01*
X111813000Y-98372000D02*
X112395000Y-97790000D01*
X109167000Y-98372000D02*
X111813000Y-98372000D01*
%TO.N,TFT_RST*%
X139065000Y-94517499D02*
X139065000Y-93980000D01*
X136622501Y-95152499D02*
X137795000Y-93980000D01*
X137795000Y-93980000D02*
X139065000Y-93980000D01*
X136622501Y-95152499D02*
X130712499Y-95152499D01*
X130712499Y-95152499D02*
X128270000Y-92710000D01*
X121920000Y-92710000D02*
X119477501Y-95152499D01*
X128270000Y-92710000D02*
X121920000Y-92710000D01*
X109167000Y-93292000D02*
X109167000Y-94562000D01*
X109757499Y-95152499D02*
X119477501Y-95152499D01*
X109167000Y-94562000D02*
X109757499Y-95152499D01*
%TO.N,TFT_CS*%
X130175000Y-96520000D02*
X139065000Y-96520000D01*
X127635000Y-93980000D02*
X130175000Y-96520000D01*
X122555000Y-93980000D02*
X127635000Y-93980000D01*
X120040400Y-96494600D02*
X122555000Y-93980000D01*
X109220000Y-96494600D02*
X109220000Y-96494600D01*
X109220000Y-96494600D02*
X120040400Y-96494600D01*
%TO.N,PN532_IRQ*%
X125095000Y-100330000D02*
X131445000Y-106680000D01*
X131445000Y-106680000D02*
X132715000Y-106680000D01*
%TO.N,IRB*%
X107315000Y-92075000D02*
X107315000Y-111887000D01*
X107315000Y-111887000D02*
X107886500Y-112458500D01*
X107886500Y-112458500D02*
X109474000Y-114046000D01*
X107442000Y-112014000D02*
X107886500Y-112458500D01*
X107315000Y-92075000D02*
X109220000Y-90170000D01*
%TO.N,SDA*%
X130122000Y-90752000D02*
X125042000Y-90752000D01*
X132715000Y-93345000D02*
X130122000Y-90752000D01*
%TO.N,SCL*%
X125042000Y-86942000D02*
X125042000Y-86942000D01*
X128852000Y-86942000D02*
X125042000Y-86942000D01*
X132715000Y-90805000D02*
X128852000Y-86942000D01*
%TO.N,TFT_EN*%
X135890000Y-107950000D02*
X137160000Y-109220000D01*
X137160000Y-109220000D02*
X139065000Y-109220000D01*
X135890000Y-104140000D02*
X135890000Y-107950000D01*
X133985000Y-102235000D02*
X135890000Y-104140000D01*
X129540000Y-102235000D02*
X133985000Y-102235000D01*
X125095000Y-97790000D02*
X129540000Y-102235000D01*
%TD*%
D19*
%TO.N,GND*%
X104521000Y-83566000D02*
X104523440Y-83590776D01*
X104530667Y-83614601D01*
X104542403Y-83636557D01*
X104558197Y-83655803D01*
X104577443Y-83671597D01*
X104599399Y-83683333D01*
X104623224Y-83690560D01*
X104648000Y-83693000D01*
X123698000Y-83693000D01*
X123722776Y-83690560D01*
X123746601Y-83683333D01*
X123768557Y-83671597D01*
X123787803Y-83655803D01*
X123803597Y-83636557D01*
X123815333Y-83614601D01*
X123822560Y-83590776D01*
X123825000Y-83566000D01*
X123825000Y-83302000D01*
X147203000Y-83302000D01*
X147203001Y-115453000D01*
X126142047Y-115453000D01*
X127702296Y-113892751D01*
X127742146Y-113860048D01*
X127782832Y-113810472D01*
X127872671Y-113701003D01*
X127969661Y-113519549D01*
X127969667Y-113519528D01*
X128029386Y-113322660D01*
X128044500Y-113169206D01*
X128044500Y-113169196D01*
X128049552Y-113117903D01*
X128044500Y-113066609D01*
X128044500Y-112437715D01*
X128224936Y-112257279D01*
X128327344Y-112104014D01*
X128344822Y-112133355D01*
X128539731Y-112349588D01*
X128773080Y-112523641D01*
X129035901Y-112648825D01*
X129183110Y-112693476D01*
X129413000Y-112572155D01*
X129413000Y-111379000D01*
X129393000Y-111379000D01*
X129393000Y-111125000D01*
X129413000Y-111125000D01*
X129413000Y-111105000D01*
X129667000Y-111105000D01*
X129667000Y-111125000D01*
X129687000Y-111125000D01*
X129687000Y-111379000D01*
X129667000Y-111379000D01*
X129667000Y-112572155D01*
X129896890Y-112693476D01*
X130044099Y-112648825D01*
X130306920Y-112523641D01*
X130540269Y-112349588D01*
X130735178Y-112133355D01*
X130752656Y-112104014D01*
X130855064Y-112257279D01*
X131074721Y-112476936D01*
X131333011Y-112649519D01*
X131620006Y-112768396D01*
X131924679Y-112829000D01*
X132235321Y-112829000D01*
X132539994Y-112768396D01*
X132826989Y-112649519D01*
X133085279Y-112476936D01*
X133124896Y-112437319D01*
X133162597Y-112507853D01*
X133253446Y-112618554D01*
X133364147Y-112709403D01*
X133490443Y-112776910D01*
X133627483Y-112818480D01*
X133770000Y-112832517D01*
X135470000Y-112832517D01*
X135612517Y-112818480D01*
X135670764Y-112800811D01*
X141818000Y-112800811D01*
X141818000Y-113259189D01*
X141907426Y-113708761D01*
X142082840Y-114132248D01*
X142337501Y-114513376D01*
X142661624Y-114837499D01*
X143042752Y-115092160D01*
X143466239Y-115267574D01*
X143915811Y-115357000D01*
X144374189Y-115357000D01*
X144823761Y-115267574D01*
X145247248Y-115092160D01*
X145628376Y-114837499D01*
X145952499Y-114513376D01*
X146207160Y-114132248D01*
X146382574Y-113708761D01*
X146472000Y-113259189D01*
X146472000Y-112800811D01*
X146382574Y-112351239D01*
X146207160Y-111927752D01*
X145952499Y-111546624D01*
X145628376Y-111222501D01*
X145247248Y-110967840D01*
X144823761Y-110792426D01*
X144374189Y-110703000D01*
X143915811Y-110703000D01*
X143466239Y-110792426D01*
X143042752Y-110967840D01*
X142661624Y-111222501D01*
X142337501Y-111546624D01*
X142082840Y-111927752D01*
X141907426Y-112351239D01*
X141818000Y-112800811D01*
X135670764Y-112800811D01*
X135749557Y-112776910D01*
X135875853Y-112709403D01*
X135986554Y-112618554D01*
X136077403Y-112507853D01*
X136144910Y-112381557D01*
X136186480Y-112244517D01*
X136200517Y-112102000D01*
X136200517Y-110402000D01*
X136186480Y-110259483D01*
X136144910Y-110122443D01*
X136077403Y-109996147D01*
X135986554Y-109885446D01*
X135875853Y-109794597D01*
X135749557Y-109727090D01*
X135654103Y-109698135D01*
X135649386Y-109650242D01*
X135589661Y-109453353D01*
X135492671Y-109271900D01*
X135362146Y-109112854D01*
X135322291Y-109080146D01*
X134759854Y-108517709D01*
X134727146Y-108477854D01*
X134568100Y-108347329D01*
X134386647Y-108250339D01*
X134189758Y-108190614D01*
X134036304Y-108175500D01*
X134036293Y-108175500D01*
X133985000Y-108170448D01*
X133933707Y-108175500D01*
X133225442Y-108175500D01*
X133461989Y-108077519D01*
X133720279Y-107904936D01*
X133939936Y-107685279D01*
X134112519Y-107426989D01*
X134231396Y-107139994D01*
X134292000Y-106835321D01*
X134292000Y-106524679D01*
X134231396Y-106220006D01*
X134112519Y-105933011D01*
X133939936Y-105674721D01*
X133900319Y-105635104D01*
X133970853Y-105597403D01*
X134081554Y-105506554D01*
X134172403Y-105395853D01*
X134239910Y-105269557D01*
X134281480Y-105132517D01*
X134295517Y-104990000D01*
X134295517Y-104022663D01*
X134845500Y-104572646D01*
X134845501Y-107898697D01*
X134840448Y-107950000D01*
X134845501Y-108001303D01*
X134845501Y-108001304D01*
X134860615Y-108154758D01*
X134866907Y-108175500D01*
X134920339Y-108351646D01*
X135017329Y-108533100D01*
X135091929Y-108624000D01*
X135147855Y-108692146D01*
X135187704Y-108724849D01*
X136385149Y-109922295D01*
X136417854Y-109962146D01*
X136457703Y-109994849D01*
X136457704Y-109994850D01*
X136576899Y-110092671D01*
X136758353Y-110189661D01*
X136955242Y-110249386D01*
X137108696Y-110264500D01*
X137108706Y-110264500D01*
X137159999Y-110269552D01*
X137211293Y-110264500D01*
X137879285Y-110264500D01*
X138059721Y-110444936D01*
X138318011Y-110617519D01*
X138605006Y-110736396D01*
X138909679Y-110797000D01*
X139220321Y-110797000D01*
X139524994Y-110736396D01*
X139811989Y-110617519D01*
X140070279Y-110444936D01*
X140289936Y-110225279D01*
X140462519Y-109966989D01*
X140581396Y-109679994D01*
X140642000Y-109375321D01*
X140642000Y-109064679D01*
X140581396Y-108760006D01*
X140462519Y-108473011D01*
X140289936Y-108214721D01*
X140070279Y-107995064D01*
X140002836Y-107950000D01*
X140070279Y-107904936D01*
X140289936Y-107685279D01*
X140462519Y-107426989D01*
X140581396Y-107139994D01*
X140642000Y-106835321D01*
X140642000Y-106524679D01*
X140581396Y-106220006D01*
X140462519Y-105933011D01*
X140289936Y-105674721D01*
X140070279Y-105455064D01*
X140002836Y-105410000D01*
X140070279Y-105364936D01*
X140289936Y-105145279D01*
X140462519Y-104886989D01*
X140581396Y-104599994D01*
X140642000Y-104295321D01*
X140642000Y-103984679D01*
X140581396Y-103680006D01*
X140462519Y-103393011D01*
X140289936Y-103134721D01*
X140070279Y-102915064D01*
X140002836Y-102870000D01*
X140070279Y-102824936D01*
X140289936Y-102605279D01*
X140462519Y-102346989D01*
X140581396Y-102059994D01*
X140642000Y-101755321D01*
X140642000Y-101444679D01*
X140581396Y-101140006D01*
X140462519Y-100853011D01*
X140289936Y-100594721D01*
X140070279Y-100375064D01*
X140002836Y-100330000D01*
X140070279Y-100284936D01*
X140289936Y-100065279D01*
X140462519Y-99806989D01*
X140581396Y-99519994D01*
X140642000Y-99215321D01*
X140642000Y-98904679D01*
X140581396Y-98600006D01*
X140462519Y-98313011D01*
X140289936Y-98054721D01*
X140070279Y-97835064D01*
X140002836Y-97790000D01*
X140070279Y-97744936D01*
X140289936Y-97525279D01*
X140462519Y-97266989D01*
X140581396Y-96979994D01*
X140642000Y-96675321D01*
X140642000Y-96364679D01*
X140581396Y-96060006D01*
X140462519Y-95773011D01*
X140289936Y-95514721D01*
X140070279Y-95295064D01*
X140002836Y-95250000D01*
X140070279Y-95204936D01*
X140289936Y-94985279D01*
X140462519Y-94726989D01*
X140581396Y-94439994D01*
X140642000Y-94135321D01*
X140642000Y-93824679D01*
X140581396Y-93520006D01*
X140462519Y-93233011D01*
X140289936Y-92974721D01*
X140070279Y-92755064D01*
X139917014Y-92652656D01*
X139946355Y-92635178D01*
X140162588Y-92440269D01*
X140336641Y-92206920D01*
X140461825Y-91944099D01*
X140506476Y-91796890D01*
X140385155Y-91567000D01*
X139192000Y-91567000D01*
X139192000Y-91587000D01*
X138938000Y-91587000D01*
X138938000Y-91567000D01*
X137744845Y-91567000D01*
X137623524Y-91796890D01*
X137668175Y-91944099D01*
X137793359Y-92206920D01*
X137967412Y-92440269D01*
X138183645Y-92635178D01*
X138212986Y-92652656D01*
X138059721Y-92755064D01*
X137879285Y-92935500D01*
X137846293Y-92935500D01*
X137795000Y-92930448D01*
X137743706Y-92935500D01*
X137743696Y-92935500D01*
X137590242Y-92950614D01*
X137410192Y-93005231D01*
X137393353Y-93010339D01*
X137211899Y-93107329D01*
X137092704Y-93205150D01*
X137052854Y-93237854D01*
X137020150Y-93277704D01*
X136189856Y-94107999D01*
X134101822Y-94107999D01*
X134112519Y-94091989D01*
X134231396Y-93804994D01*
X134292000Y-93500321D01*
X134292000Y-93189679D01*
X134231396Y-92885006D01*
X134112519Y-92598011D01*
X133939936Y-92339721D01*
X133720279Y-92120064D01*
X133652836Y-92075000D01*
X133720279Y-92029936D01*
X133939936Y-91810279D01*
X134112519Y-91551989D01*
X134231396Y-91264994D01*
X134292000Y-90960321D01*
X134292000Y-90649679D01*
X134231396Y-90345006D01*
X134112519Y-90058011D01*
X133939936Y-89799721D01*
X133720279Y-89580064D01*
X133567014Y-89477656D01*
X133596355Y-89460178D01*
X133812588Y-89265269D01*
X133986641Y-89031920D01*
X134111825Y-88769099D01*
X134156476Y-88621890D01*
X134035155Y-88392000D01*
X132842000Y-88392000D01*
X132842000Y-88412000D01*
X132588000Y-88412000D01*
X132588000Y-88392000D01*
X132568000Y-88392000D01*
X132568000Y-88138000D01*
X132588000Y-88138000D01*
X132588000Y-88118000D01*
X132842000Y-88118000D01*
X132842000Y-88138000D01*
X134035155Y-88138000D01*
X134081595Y-88050000D01*
X137484483Y-88050000D01*
X137484483Y-89750000D01*
X137498520Y-89892517D01*
X137540090Y-90029557D01*
X137607597Y-90155853D01*
X137698446Y-90266554D01*
X137809147Y-90357403D01*
X137935443Y-90424910D01*
X137971665Y-90435898D01*
X137967412Y-90439731D01*
X137793359Y-90673080D01*
X137668175Y-90935901D01*
X137623524Y-91083110D01*
X137744845Y-91313000D01*
X138938000Y-91313000D01*
X138938000Y-91293000D01*
X139192000Y-91293000D01*
X139192000Y-91313000D01*
X140385155Y-91313000D01*
X140506476Y-91083110D01*
X140461825Y-90935901D01*
X140336641Y-90673080D01*
X140162588Y-90439731D01*
X140158335Y-90435898D01*
X140194557Y-90424910D01*
X140320853Y-90357403D01*
X140431554Y-90266554D01*
X140522403Y-90155853D01*
X140589910Y-90029557D01*
X140631480Y-89892517D01*
X140645517Y-89750000D01*
X140645517Y-88050000D01*
X140631480Y-87907483D01*
X140589910Y-87770443D01*
X140522403Y-87644147D01*
X140431554Y-87533446D01*
X140320853Y-87442597D01*
X140194557Y-87375090D01*
X140057517Y-87333520D01*
X139915000Y-87319483D01*
X138215000Y-87319483D01*
X138072483Y-87333520D01*
X137935443Y-87375090D01*
X137809147Y-87442597D01*
X137698446Y-87533446D01*
X137607597Y-87644147D01*
X137540090Y-87770443D01*
X137498520Y-87907483D01*
X137484483Y-88050000D01*
X134081595Y-88050000D01*
X134156476Y-87908110D01*
X134111825Y-87760901D01*
X133986641Y-87498080D01*
X133812588Y-87264731D01*
X133808335Y-87260898D01*
X133844557Y-87249910D01*
X133970853Y-87182403D01*
X134081554Y-87091554D01*
X134172403Y-86980853D01*
X134239910Y-86854557D01*
X134281480Y-86717517D01*
X134295517Y-86575000D01*
X134295517Y-85495811D01*
X141818000Y-85495811D01*
X141818000Y-85954189D01*
X141907426Y-86403761D01*
X142082840Y-86827248D01*
X142337501Y-87208376D01*
X142661624Y-87532499D01*
X143042752Y-87787160D01*
X143466239Y-87962574D01*
X143915811Y-88052000D01*
X144374189Y-88052000D01*
X144823761Y-87962574D01*
X145247248Y-87787160D01*
X145628376Y-87532499D01*
X145952499Y-87208376D01*
X146207160Y-86827248D01*
X146382574Y-86403761D01*
X146472000Y-85954189D01*
X146472000Y-85495811D01*
X146382574Y-85046239D01*
X146207160Y-84622752D01*
X145952499Y-84241624D01*
X145628376Y-83917501D01*
X145247248Y-83662840D01*
X144823761Y-83487426D01*
X144374189Y-83398000D01*
X143915811Y-83398000D01*
X143466239Y-83487426D01*
X143042752Y-83662840D01*
X142661624Y-83917501D01*
X142337501Y-84241624D01*
X142082840Y-84622752D01*
X141907426Y-85046239D01*
X141818000Y-85495811D01*
X134295517Y-85495811D01*
X134295517Y-84875000D01*
X134281480Y-84732483D01*
X134239910Y-84595443D01*
X134172403Y-84469147D01*
X134081554Y-84358446D01*
X133970853Y-84267597D01*
X133844557Y-84200090D01*
X133707517Y-84158520D01*
X133565000Y-84144483D01*
X132526817Y-84144483D01*
X132481647Y-84120339D01*
X132284758Y-84060614D01*
X132131304Y-84045500D01*
X132131293Y-84045500D01*
X132080000Y-84040448D01*
X132028707Y-84045500D01*
X109906301Y-84045500D01*
X109855000Y-84040447D01*
X109803699Y-84045500D01*
X109803696Y-84045500D01*
X109650242Y-84060614D01*
X109453353Y-84120339D01*
X109271900Y-84217329D01*
X109234527Y-84248000D01*
X109074528Y-84248000D01*
X108789175Y-84304760D01*
X108520378Y-84416099D01*
X108278467Y-84577739D01*
X108072739Y-84783467D01*
X107911099Y-85025378D01*
X107799760Y-85294175D01*
X107743000Y-85579528D01*
X107743000Y-85870472D01*
X107799760Y-86155825D01*
X107911099Y-86424622D01*
X108072739Y-86666533D01*
X108278467Y-86872261D01*
X108520378Y-87033901D01*
X108789175Y-87145240D01*
X109074528Y-87202000D01*
X109365472Y-87202000D01*
X109650825Y-87145240D01*
X109919622Y-87033901D01*
X110161533Y-86872261D01*
X110367261Y-86666533D01*
X110528901Y-86424622D01*
X110640240Y-86155825D01*
X110644482Y-86134500D01*
X123805181Y-86134500D01*
X123733099Y-86242378D01*
X123621760Y-86511175D01*
X123565000Y-86796528D01*
X123565000Y-87087472D01*
X123621760Y-87372825D01*
X123733099Y-87641622D01*
X123894739Y-87883533D01*
X124100467Y-88089261D01*
X124342378Y-88250901D01*
X124611175Y-88362240D01*
X124896528Y-88419000D01*
X125187472Y-88419000D01*
X125472825Y-88362240D01*
X125741622Y-88250901D01*
X125983533Y-88089261D01*
X126086294Y-87986500D01*
X128419355Y-87986500D01*
X130136756Y-89703901D01*
X130122000Y-89702448D01*
X130070707Y-89707500D01*
X126086294Y-89707500D01*
X125983533Y-89604739D01*
X125741622Y-89443099D01*
X125472825Y-89331760D01*
X125187472Y-89275000D01*
X124896528Y-89275000D01*
X124611175Y-89331760D01*
X124342378Y-89443099D01*
X124100467Y-89604739D01*
X123894739Y-89810467D01*
X123733099Y-90052378D01*
X123621760Y-90321175D01*
X123565000Y-90606528D01*
X123565000Y-90897472D01*
X123621760Y-91182825D01*
X123733099Y-91451622D01*
X123876008Y-91665500D01*
X121971293Y-91665500D01*
X121919999Y-91660448D01*
X121868706Y-91665500D01*
X121868696Y-91665500D01*
X121715242Y-91680614D01*
X121518475Y-91740302D01*
X121518353Y-91740339D01*
X121336899Y-91837329D01*
X121218463Y-91934527D01*
X121177854Y-91967854D01*
X121145151Y-92007703D01*
X119044856Y-94107999D01*
X114655333Y-94107999D01*
X114689167Y-94046211D01*
X114735547Y-93898698D01*
X114752259Y-93744973D01*
X114738900Y-93593678D01*
X114873027Y-93608259D01*
X115027059Y-93594658D01*
X115175479Y-93551269D01*
X115312582Y-93479759D01*
X115325839Y-93470899D01*
X115309951Y-93280978D01*
X114881000Y-92852027D01*
X114452049Y-93280978D01*
X114449959Y-93305959D01*
X114424978Y-93308049D01*
X113996027Y-93737000D01*
X114083709Y-93824682D01*
X114051182Y-93857209D01*
X113963500Y-93769527D01*
X113875819Y-93857209D01*
X113843292Y-93824682D01*
X113930973Y-93737000D01*
X113502022Y-93308049D01*
X113477041Y-93305959D01*
X113474951Y-93280978D01*
X113046000Y-92852027D01*
X112617049Y-93280978D01*
X112614959Y-93305959D01*
X112589978Y-93308049D01*
X112161027Y-93737000D01*
X112248709Y-93824682D01*
X112216182Y-93857209D01*
X112128500Y-93769527D01*
X112040819Y-93857209D01*
X112008292Y-93824682D01*
X112095973Y-93737000D01*
X111667022Y-93308049D01*
X111642041Y-93305959D01*
X111639951Y-93280978D01*
X111211000Y-92852027D01*
X110782049Y-93280978D01*
X110766161Y-93470899D01*
X110901789Y-93545167D01*
X111049302Y-93591547D01*
X111203027Y-93608259D01*
X111354322Y-93594900D01*
X111339741Y-93729027D01*
X111353342Y-93883059D01*
X111396731Y-94031479D01*
X111436642Y-94107999D01*
X110398140Y-94107999D01*
X110475901Y-93991622D01*
X110587240Y-93722825D01*
X110644000Y-93437472D01*
X110644000Y-93257279D01*
X110749522Y-93248451D01*
X111178473Y-92819500D01*
X111243527Y-92819500D01*
X111672478Y-93248451D01*
X111697459Y-93250541D01*
X111699549Y-93275522D01*
X112128500Y-93704473D01*
X112557451Y-93275522D01*
X112559541Y-93250541D01*
X112584522Y-93248451D01*
X113013473Y-92819500D01*
X113078527Y-92819500D01*
X113507478Y-93248451D01*
X113532459Y-93250541D01*
X113534549Y-93275522D01*
X113963500Y-93704473D01*
X114392451Y-93275522D01*
X114394541Y-93250541D01*
X114419522Y-93248451D01*
X114848473Y-92819500D01*
X114913527Y-92819500D01*
X115342478Y-93248451D01*
X115532399Y-93264339D01*
X115606667Y-93128711D01*
X115653047Y-92981198D01*
X115669759Y-92827473D01*
X115656158Y-92673441D01*
X115612769Y-92525021D01*
X115541259Y-92387918D01*
X115532399Y-92374661D01*
X115342478Y-92390549D01*
X114913527Y-92819500D01*
X114848473Y-92819500D01*
X114419522Y-92390549D01*
X114394541Y-92388459D01*
X114392451Y-92363478D01*
X113963500Y-91934527D01*
X113534549Y-92363478D01*
X113532459Y-92388459D01*
X113507478Y-92390549D01*
X113078527Y-92819500D01*
X113013473Y-92819500D01*
X112584522Y-92390549D01*
X112559541Y-92388459D01*
X112557451Y-92363478D01*
X112128500Y-91934527D01*
X111699549Y-92363478D01*
X111697459Y-92388459D01*
X111672478Y-92390549D01*
X111243527Y-92819500D01*
X111178473Y-92819500D01*
X110749522Y-92390549D01*
X110559601Y-92374661D01*
X110485333Y-92510289D01*
X110464764Y-92575710D01*
X110314261Y-92350467D01*
X110108533Y-92144739D01*
X109866622Y-91983099D01*
X109597825Y-91871760D01*
X109312472Y-91815000D01*
X109052146Y-91815000D01*
X109220146Y-91647000D01*
X109365472Y-91647000D01*
X109421280Y-91635899D01*
X110766161Y-91635899D01*
X110901789Y-91710167D01*
X111049302Y-91756547D01*
X111203027Y-91773259D01*
X111354322Y-91759900D01*
X111339741Y-91894027D01*
X111353100Y-92045322D01*
X111218973Y-92030741D01*
X111064941Y-92044342D01*
X110916521Y-92087731D01*
X110779418Y-92159241D01*
X110766161Y-92168101D01*
X110782049Y-92358022D01*
X111211000Y-92786973D01*
X111639951Y-92358022D01*
X111642041Y-92333041D01*
X111667022Y-92330951D01*
X112095973Y-91902000D01*
X112161027Y-91902000D01*
X112589978Y-92330951D01*
X112614959Y-92333041D01*
X112617049Y-92358022D01*
X113046000Y-92786973D01*
X113474951Y-92358022D01*
X113477041Y-92333041D01*
X113502022Y-92330951D01*
X113930973Y-91902000D01*
X113996027Y-91902000D01*
X114424978Y-92330951D01*
X114449959Y-92333041D01*
X114452049Y-92358022D01*
X114881000Y-92786973D01*
X115309951Y-92358022D01*
X115325839Y-92168101D01*
X115190211Y-92093833D01*
X115042698Y-92047453D01*
X114888973Y-92030741D01*
X114737678Y-92044100D01*
X114752259Y-91909973D01*
X114738900Y-91758678D01*
X114873027Y-91773259D01*
X115027059Y-91759658D01*
X115175479Y-91716269D01*
X115312582Y-91644759D01*
X115325839Y-91635899D01*
X115309951Y-91445978D01*
X114881000Y-91017027D01*
X114452049Y-91445978D01*
X114449959Y-91470959D01*
X114424978Y-91473049D01*
X113996027Y-91902000D01*
X113930973Y-91902000D01*
X113502022Y-91473049D01*
X113477041Y-91470959D01*
X113474951Y-91445978D01*
X113046000Y-91017027D01*
X112617049Y-91445978D01*
X112614959Y-91470959D01*
X112589978Y-91473049D01*
X112161027Y-91902000D01*
X112095973Y-91902000D01*
X111667022Y-91473049D01*
X111642041Y-91470959D01*
X111639951Y-91445978D01*
X111211000Y-91017027D01*
X110782049Y-91445978D01*
X110766161Y-91635899D01*
X109421280Y-91635899D01*
X109650825Y-91590240D01*
X109919622Y-91478901D01*
X110161533Y-91317261D01*
X110367261Y-91111533D01*
X110426353Y-91023096D01*
X110435842Y-91130559D01*
X110479231Y-91278979D01*
X110550741Y-91416082D01*
X110559601Y-91429339D01*
X110749522Y-91413451D01*
X111178473Y-90984500D01*
X111243527Y-90984500D01*
X111672478Y-91413451D01*
X111697459Y-91415541D01*
X111699549Y-91440522D01*
X112128500Y-91869473D01*
X112557451Y-91440522D01*
X112559541Y-91415541D01*
X112584522Y-91413451D01*
X113013473Y-90984500D01*
X113078527Y-90984500D01*
X113507478Y-91413451D01*
X113532459Y-91415541D01*
X113534549Y-91440522D01*
X113963500Y-91869473D01*
X114392451Y-91440522D01*
X114394541Y-91415541D01*
X114419522Y-91413451D01*
X114848473Y-90984500D01*
X114913527Y-90984500D01*
X115342478Y-91413451D01*
X115532399Y-91429339D01*
X115606667Y-91293711D01*
X115653047Y-91146198D01*
X115669759Y-90992473D01*
X115656158Y-90838441D01*
X115612769Y-90690021D01*
X115541259Y-90552918D01*
X115532399Y-90539661D01*
X115342478Y-90555549D01*
X114913527Y-90984500D01*
X114848473Y-90984500D01*
X114419522Y-90555549D01*
X114394541Y-90553459D01*
X114392451Y-90528478D01*
X113963500Y-90099527D01*
X113534549Y-90528478D01*
X113532459Y-90553459D01*
X113507478Y-90555549D01*
X113078527Y-90984500D01*
X113013473Y-90984500D01*
X112584522Y-90555549D01*
X112559541Y-90553459D01*
X112557451Y-90528478D01*
X112128500Y-90099527D01*
X111699549Y-90528478D01*
X111697459Y-90553459D01*
X111672478Y-90555549D01*
X111243527Y-90984500D01*
X111178473Y-90984500D01*
X111090792Y-90896819D01*
X111123319Y-90864292D01*
X111211000Y-90951973D01*
X111639951Y-90523022D01*
X111642041Y-90498041D01*
X111667022Y-90495951D01*
X112095973Y-90067000D01*
X112161027Y-90067000D01*
X112589978Y-90495951D01*
X112614959Y-90498041D01*
X112617049Y-90523022D01*
X113046000Y-90951973D01*
X113474951Y-90523022D01*
X113477041Y-90498041D01*
X113502022Y-90495951D01*
X113930973Y-90067000D01*
X113996027Y-90067000D01*
X114424978Y-90495951D01*
X114449959Y-90498041D01*
X114452049Y-90523022D01*
X114881000Y-90951973D01*
X115309951Y-90523022D01*
X115325839Y-90333101D01*
X115190211Y-90258833D01*
X115042698Y-90212453D01*
X114888973Y-90195741D01*
X114737678Y-90209100D01*
X114752259Y-90074973D01*
X114738658Y-89920941D01*
X114695269Y-89772521D01*
X114623759Y-89635418D01*
X114614899Y-89622161D01*
X114424978Y-89638049D01*
X113996027Y-90067000D01*
X113930973Y-90067000D01*
X113502022Y-89638049D01*
X113312101Y-89622161D01*
X113237833Y-89757789D01*
X113191453Y-89905302D01*
X113174741Y-90059027D01*
X113188100Y-90210322D01*
X113053973Y-90195741D01*
X112902678Y-90209100D01*
X112917259Y-90074973D01*
X112903658Y-89920941D01*
X112860269Y-89772521D01*
X112788759Y-89635418D01*
X112779899Y-89622161D01*
X112589978Y-89638049D01*
X112161027Y-90067000D01*
X112095973Y-90067000D01*
X111667022Y-89638049D01*
X111477101Y-89622161D01*
X111402833Y-89757789D01*
X111356453Y-89905302D01*
X111339741Y-90059027D01*
X111353100Y-90210322D01*
X111218973Y-90195741D01*
X111064941Y-90209342D01*
X110916521Y-90252731D01*
X110779418Y-90324241D01*
X110766161Y-90333101D01*
X110768622Y-90362514D01*
X110743474Y-90337366D01*
X110680024Y-90400816D01*
X110697000Y-90315472D01*
X110697000Y-90024528D01*
X110640240Y-89739175D01*
X110528901Y-89470378D01*
X110492301Y-89415601D01*
X111683661Y-89415601D01*
X111699549Y-89605522D01*
X112128500Y-90034473D01*
X112557451Y-89605522D01*
X112573339Y-89415601D01*
X113518661Y-89415601D01*
X113534549Y-89605522D01*
X113963500Y-90034473D01*
X114392451Y-89605522D01*
X114408339Y-89415601D01*
X114272711Y-89341333D01*
X114125198Y-89294953D01*
X113971473Y-89278241D01*
X113817441Y-89291842D01*
X113669021Y-89335231D01*
X113531918Y-89406741D01*
X113518661Y-89415601D01*
X112573339Y-89415601D01*
X112437711Y-89341333D01*
X112290198Y-89294953D01*
X112136473Y-89278241D01*
X111982441Y-89291842D01*
X111834021Y-89335231D01*
X111696918Y-89406741D01*
X111683661Y-89415601D01*
X110492301Y-89415601D01*
X110367261Y-89228467D01*
X110161533Y-89022739D01*
X109919622Y-88861099D01*
X109650825Y-88749760D01*
X109365472Y-88693000D01*
X109074528Y-88693000D01*
X108789175Y-88749760D01*
X108520378Y-88861099D01*
X108278467Y-89022739D01*
X108072739Y-89228467D01*
X107911099Y-89470378D01*
X107799760Y-89739175D01*
X107743000Y-90024528D01*
X107743000Y-90169854D01*
X106612709Y-91300146D01*
X106572854Y-91332854D01*
X106442329Y-91491900D01*
X106345339Y-91673354D01*
X106285614Y-91870243D01*
X106270500Y-92023697D01*
X106270500Y-92023707D01*
X106265448Y-92075000D01*
X106270500Y-92126293D01*
X106270501Y-111835697D01*
X106265448Y-111887000D01*
X106270501Y-111938303D01*
X106270501Y-111938304D01*
X106283310Y-112068350D01*
X106285615Y-112091757D01*
X106345339Y-112288646D01*
X106442329Y-112470100D01*
X106491163Y-112529604D01*
X106572855Y-112629146D01*
X106612704Y-112661849D01*
X107897000Y-113946145D01*
X107897000Y-114201321D01*
X107957604Y-114505994D01*
X108076481Y-114792989D01*
X108249064Y-115051279D01*
X108468721Y-115270936D01*
X108727011Y-115443519D01*
X108749900Y-115453000D01*
X71872000Y-115453000D01*
X71872000Y-112800811D01*
X72603000Y-112800811D01*
X72603000Y-113259189D01*
X72692426Y-113708761D01*
X72867840Y-114132248D01*
X73122501Y-114513376D01*
X73446624Y-114837499D01*
X73827752Y-115092160D01*
X74251239Y-115267574D01*
X74700811Y-115357000D01*
X75159189Y-115357000D01*
X75608761Y-115267574D01*
X76032248Y-115092160D01*
X76413376Y-114837499D01*
X76737499Y-114513376D01*
X76992160Y-114132248D01*
X77167574Y-113708761D01*
X77179952Y-113646528D01*
X88312000Y-113646528D01*
X88312000Y-113937472D01*
X88368760Y-114222825D01*
X88480099Y-114491622D01*
X88641739Y-114733533D01*
X88847467Y-114939261D01*
X89089378Y-115100901D01*
X89358175Y-115212240D01*
X89643528Y-115269000D01*
X89934472Y-115269000D01*
X90219825Y-115212240D01*
X90488622Y-115100901D01*
X90730533Y-114939261D01*
X90936261Y-114733533D01*
X91097901Y-114491622D01*
X91209240Y-114222825D01*
X91266000Y-113937472D01*
X91266000Y-113646528D01*
X91209240Y-113361175D01*
X91097901Y-113092378D01*
X90936261Y-112850467D01*
X90833500Y-112747706D01*
X90833500Y-100311528D01*
X91487000Y-100311528D01*
X91487000Y-100602472D01*
X91543760Y-100887825D01*
X91655099Y-101156622D01*
X91816739Y-101398533D01*
X91919501Y-101501295D01*
X91919500Y-112747706D01*
X91816739Y-112850467D01*
X91655099Y-113092378D01*
X91543760Y-113361175D01*
X91487000Y-113646528D01*
X91487000Y-113937472D01*
X91543760Y-114222825D01*
X91655099Y-114491622D01*
X91816739Y-114733533D01*
X92022467Y-114939261D01*
X92264378Y-115100901D01*
X92533175Y-115212240D01*
X92818528Y-115269000D01*
X93109472Y-115269000D01*
X93394825Y-115212240D01*
X93663622Y-115100901D01*
X93905533Y-114939261D01*
X94111261Y-114733533D01*
X94272901Y-114491622D01*
X94384240Y-114222825D01*
X94441000Y-113937472D01*
X94441000Y-113646528D01*
X94384240Y-113361175D01*
X94272901Y-113092378D01*
X94111261Y-112850467D01*
X94008500Y-112747706D01*
X94008500Y-108624000D01*
X96844483Y-108624000D01*
X96844483Y-110324000D01*
X96858520Y-110466517D01*
X96900090Y-110603557D01*
X96967597Y-110729853D01*
X97058446Y-110840554D01*
X97169147Y-110931403D01*
X97295443Y-110998910D01*
X97432483Y-111040480D01*
X97575000Y-111054517D01*
X99275000Y-111054517D01*
X99417517Y-111040480D01*
X99554557Y-110998910D01*
X99680853Y-110931403D01*
X99791554Y-110840554D01*
X99882403Y-110729853D01*
X99949910Y-110603557D01*
X99991480Y-110466517D01*
X100005517Y-110324000D01*
X100005517Y-108624000D01*
X103067483Y-108624000D01*
X103067483Y-110324000D01*
X103081520Y-110466517D01*
X103123090Y-110603557D01*
X103190597Y-110729853D01*
X103281446Y-110840554D01*
X103392147Y-110931403D01*
X103518443Y-110998910D01*
X103655483Y-111040480D01*
X103798000Y-111054517D01*
X105498000Y-111054517D01*
X105640517Y-111040480D01*
X105777557Y-110998910D01*
X105903853Y-110931403D01*
X106014554Y-110840554D01*
X106105403Y-110729853D01*
X106172910Y-110603557D01*
X106214480Y-110466517D01*
X106228517Y-110324000D01*
X106228517Y-108624000D01*
X106214480Y-108481483D01*
X106172910Y-108344443D01*
X106105403Y-108218147D01*
X106014554Y-108107446D01*
X105903853Y-108016597D01*
X105833319Y-107978896D01*
X105872936Y-107939279D01*
X106045519Y-107680989D01*
X106164396Y-107393994D01*
X106225000Y-107089321D01*
X106225000Y-106778679D01*
X106164396Y-106474006D01*
X106045519Y-106187011D01*
X105872936Y-105928721D01*
X105653279Y-105709064D01*
X105394989Y-105536481D01*
X105107994Y-105417604D01*
X104803321Y-105357000D01*
X104492679Y-105357000D01*
X104188006Y-105417604D01*
X103901011Y-105536481D01*
X103642721Y-105709064D01*
X103423064Y-105928721D01*
X103250481Y-106187011D01*
X103131604Y-106474006D01*
X103071000Y-106778679D01*
X103071000Y-107089321D01*
X103131604Y-107393994D01*
X103250481Y-107680989D01*
X103423064Y-107939279D01*
X103462681Y-107978896D01*
X103392147Y-108016597D01*
X103281446Y-108107446D01*
X103190597Y-108218147D01*
X103123090Y-108344443D01*
X103081520Y-108481483D01*
X103067483Y-108624000D01*
X100005517Y-108624000D01*
X99991480Y-108481483D01*
X99949910Y-108344443D01*
X99882403Y-108218147D01*
X99791554Y-108107446D01*
X99680853Y-108016597D01*
X99610319Y-107978896D01*
X99649936Y-107939279D01*
X99822519Y-107680989D01*
X99941396Y-107393994D01*
X100002000Y-107089321D01*
X100002000Y-106778679D01*
X99941396Y-106474006D01*
X99822519Y-106187011D01*
X99649936Y-105928721D01*
X99430279Y-105709064D01*
X99171989Y-105536481D01*
X98884994Y-105417604D01*
X98580321Y-105357000D01*
X98269679Y-105357000D01*
X97965006Y-105417604D01*
X97678011Y-105536481D01*
X97419721Y-105709064D01*
X97200064Y-105928721D01*
X97027481Y-106187011D01*
X96908604Y-106474006D01*
X96848000Y-106778679D01*
X96848000Y-107089321D01*
X96908604Y-107393994D01*
X97027481Y-107680989D01*
X97200064Y-107939279D01*
X97239681Y-107978896D01*
X97169147Y-108016597D01*
X97058446Y-108107446D01*
X96967597Y-108218147D01*
X96900090Y-108344443D01*
X96858520Y-108481483D01*
X96844483Y-108624000D01*
X94008500Y-108624000D01*
X94008500Y-101501294D01*
X94111261Y-101398533D01*
X94272901Y-101156622D01*
X94384240Y-100887825D01*
X94441000Y-100602472D01*
X94441000Y-100311528D01*
X94384240Y-100026175D01*
X94272901Y-99757378D01*
X94111261Y-99515467D01*
X93905533Y-99309739D01*
X93663622Y-99148099D01*
X93394825Y-99036760D01*
X93109472Y-98980000D01*
X92818528Y-98980000D01*
X92533175Y-99036760D01*
X92264378Y-99148099D01*
X92022467Y-99309739D01*
X91816739Y-99515467D01*
X91655099Y-99757378D01*
X91543760Y-100026175D01*
X91487000Y-100311528D01*
X90833500Y-100311528D01*
X90833500Y-99873645D01*
X97587646Y-93119500D01*
X101190706Y-93119500D01*
X101293467Y-93222261D01*
X101535378Y-93383901D01*
X101804175Y-93495240D01*
X102089528Y-93552000D01*
X102380472Y-93552000D01*
X102665825Y-93495240D01*
X102934622Y-93383901D01*
X103176533Y-93222261D01*
X103382261Y-93016533D01*
X103543901Y-92774622D01*
X103655240Y-92505825D01*
X103712000Y-92220472D01*
X103712000Y-91929528D01*
X103655240Y-91644175D01*
X103543901Y-91375378D01*
X103382261Y-91133467D01*
X103176533Y-90927739D01*
X102934622Y-90766099D01*
X102665825Y-90654760D01*
X102380472Y-90598000D01*
X102089528Y-90598000D01*
X101804175Y-90654760D01*
X101535378Y-90766099D01*
X101293467Y-90927739D01*
X101190706Y-91030500D01*
X97206293Y-91030500D01*
X97154999Y-91025448D01*
X97103706Y-91030500D01*
X97103696Y-91030500D01*
X96950242Y-91045614D01*
X96753353Y-91105339D01*
X96571899Y-91202329D01*
X96513080Y-91250601D01*
X96412854Y-91332854D01*
X96380151Y-91372703D01*
X89086704Y-98666151D01*
X89046855Y-98698854D01*
X89014152Y-98738703D01*
X89014150Y-98738705D01*
X88916329Y-98857900D01*
X88819339Y-99039354D01*
X88780156Y-99168528D01*
X88759615Y-99236242D01*
X88749232Y-99341661D01*
X88739448Y-99441000D01*
X88744501Y-99492303D01*
X88744500Y-112747706D01*
X88641739Y-112850467D01*
X88480099Y-113092378D01*
X88368760Y-113361175D01*
X88312000Y-113646528D01*
X77179952Y-113646528D01*
X77257000Y-113259189D01*
X77257000Y-112800811D01*
X77167574Y-112351239D01*
X76992160Y-111927752D01*
X76737499Y-111546624D01*
X76413376Y-111222501D01*
X76032248Y-110967840D01*
X75608761Y-110792426D01*
X75159189Y-110703000D01*
X74700811Y-110703000D01*
X74251239Y-110792426D01*
X73827752Y-110967840D01*
X73446624Y-111222501D01*
X73122501Y-111546624D01*
X72867840Y-111927752D01*
X72692426Y-112351239D01*
X72603000Y-112800811D01*
X71872000Y-112800811D01*
X71872000Y-109856393D01*
X72042000Y-109893000D01*
X72517000Y-109893000D01*
X72517000Y-108910000D01*
X72771000Y-108910000D01*
X72771000Y-109893000D01*
X73246000Y-109893000D01*
X73460110Y-109846895D01*
X73661111Y-109759905D01*
X73841279Y-109635373D01*
X73993690Y-109478085D01*
X74112487Y-109294086D01*
X74188268Y-109080938D01*
X74061734Y-108910000D01*
X72771000Y-108910000D01*
X72517000Y-108910000D01*
X72497000Y-108910000D01*
X72497000Y-108722133D01*
X74584472Y-108722133D01*
X74646965Y-108958450D01*
X74889678Y-109071850D01*
X75149849Y-109135719D01*
X75417482Y-109147604D01*
X75682291Y-109107048D01*
X75934100Y-109015609D01*
X76041035Y-108958450D01*
X76103528Y-108722133D01*
X75344000Y-107962605D01*
X74584472Y-108722133D01*
X72497000Y-108722133D01*
X72497000Y-108656000D01*
X72517000Y-108656000D01*
X72517000Y-107673000D01*
X72771000Y-107673000D01*
X72771000Y-108656000D01*
X74061734Y-108656000D01*
X74188152Y-108485219D01*
X74404867Y-108542528D01*
X75164395Y-107783000D01*
X75523605Y-107783000D01*
X76283133Y-108542528D01*
X76519450Y-108480035D01*
X76632850Y-108237322D01*
X76696719Y-107977151D01*
X76708604Y-107709518D01*
X76668048Y-107444709D01*
X76576609Y-107192900D01*
X76519450Y-107085965D01*
X76283133Y-107023472D01*
X75523605Y-107783000D01*
X75164395Y-107783000D01*
X74404867Y-107023472D01*
X74168550Y-107085965D01*
X74055150Y-107328678D01*
X73991281Y-107588849D01*
X73979396Y-107856482D01*
X74019952Y-108121291D01*
X74026010Y-108137974D01*
X73993690Y-108087915D01*
X73841279Y-107930627D01*
X73661111Y-107806095D01*
X73460110Y-107719105D01*
X73246000Y-107673000D01*
X72771000Y-107673000D01*
X72517000Y-107673000D01*
X72042000Y-107673000D01*
X71872000Y-107709607D01*
X71872000Y-106843867D01*
X74584472Y-106843867D01*
X75344000Y-107603395D01*
X76103528Y-106843867D01*
X76041035Y-106607550D01*
X75798322Y-106494150D01*
X75538151Y-106430281D01*
X75270518Y-106418396D01*
X75005709Y-106458952D01*
X74753900Y-106550391D01*
X74646965Y-106607550D01*
X74584472Y-106843867D01*
X71872000Y-106843867D01*
X71872000Y-103722133D01*
X74584472Y-103722133D01*
X74646965Y-103958450D01*
X74889678Y-104071850D01*
X75149849Y-104135719D01*
X75417482Y-104147604D01*
X75682291Y-104107048D01*
X75934100Y-104015609D01*
X76041035Y-103958450D01*
X76103528Y-103722133D01*
X75344000Y-102962605D01*
X74584472Y-103722133D01*
X71872000Y-103722133D01*
X71872000Y-102856393D01*
X72042000Y-102893000D01*
X72517000Y-102893000D01*
X72517000Y-101910000D01*
X72771000Y-101910000D01*
X72771000Y-102893000D01*
X73246000Y-102893000D01*
X73460110Y-102846895D01*
X73661111Y-102759905D01*
X73841279Y-102635373D01*
X73993690Y-102478085D01*
X74033676Y-102416153D01*
X73991281Y-102588849D01*
X73979396Y-102856482D01*
X74019952Y-103121291D01*
X74111391Y-103373100D01*
X74168550Y-103480035D01*
X74404867Y-103542528D01*
X75164395Y-102783000D01*
X75523605Y-102783000D01*
X76283133Y-103542528D01*
X76519450Y-103480035D01*
X76632850Y-103237322D01*
X76696719Y-102977151D01*
X76708604Y-102709518D01*
X76668048Y-102444709D01*
X76576609Y-102192900D01*
X76519450Y-102085965D01*
X76283133Y-102023472D01*
X75523605Y-102783000D01*
X75164395Y-102783000D01*
X74404867Y-102023472D01*
X74188152Y-102080781D01*
X74061734Y-101910000D01*
X72771000Y-101910000D01*
X72517000Y-101910000D01*
X72497000Y-101910000D01*
X72497000Y-101843867D01*
X74584472Y-101843867D01*
X75344000Y-102603395D01*
X76103528Y-101843867D01*
X76041035Y-101607550D01*
X75798322Y-101494150D01*
X75538151Y-101430281D01*
X75270518Y-101418396D01*
X75005709Y-101458952D01*
X74753900Y-101550391D01*
X74646965Y-101607550D01*
X74584472Y-101843867D01*
X72497000Y-101843867D01*
X72497000Y-101656000D01*
X72517000Y-101656000D01*
X72517000Y-100673000D01*
X72771000Y-100673000D01*
X72771000Y-101656000D01*
X74061734Y-101656000D01*
X74188268Y-101485062D01*
X74112487Y-101271914D01*
X73993690Y-101087915D01*
X73841279Y-100930627D01*
X73661111Y-100806095D01*
X73460110Y-100719105D01*
X73246000Y-100673000D01*
X72771000Y-100673000D01*
X72517000Y-100673000D01*
X72042000Y-100673000D01*
X71872000Y-100709607D01*
X71872000Y-98695000D01*
X80057483Y-98695000D01*
X80057483Y-100695000D01*
X80071520Y-100837517D01*
X80113090Y-100974557D01*
X80180597Y-101100853D01*
X80271446Y-101211554D01*
X80382147Y-101302403D01*
X80508443Y-101369910D01*
X80645483Y-101411480D01*
X80788000Y-101425517D01*
X82788000Y-101425517D01*
X82930517Y-101411480D01*
X83067557Y-101369910D01*
X83193853Y-101302403D01*
X83304554Y-101211554D01*
X83395403Y-101100853D01*
X83462910Y-100974557D01*
X83504480Y-100837517D01*
X83518517Y-100695000D01*
X83518517Y-98695000D01*
X83504480Y-98552483D01*
X83462910Y-98415443D01*
X83395403Y-98289147D01*
X83304554Y-98178446D01*
X83193853Y-98087597D01*
X83067557Y-98020090D01*
X82930517Y-97978520D01*
X82788000Y-97964483D01*
X80788000Y-97964483D01*
X80645483Y-97978520D01*
X80508443Y-98020090D01*
X80382147Y-98087597D01*
X80271446Y-98178446D01*
X80180597Y-98289147D01*
X80113090Y-98415443D01*
X80071520Y-98552483D01*
X80057483Y-98695000D01*
X71872000Y-98695000D01*
X71872000Y-96348029D01*
X71893635Y-96456796D01*
X71982328Y-96670920D01*
X72111091Y-96863626D01*
X72274974Y-97027509D01*
X72467680Y-97156272D01*
X72681804Y-97244965D01*
X72909117Y-97290180D01*
X73140883Y-97290180D01*
X73368196Y-97244965D01*
X73582320Y-97156272D01*
X73775026Y-97027509D01*
X73938909Y-96863626D01*
X74067672Y-96670920D01*
X74156365Y-96456796D01*
X74201580Y-96229483D01*
X74201580Y-95997717D01*
X74168302Y-95830413D01*
X80832192Y-95830413D01*
X80927956Y-96094814D01*
X81217571Y-96235704D01*
X81529108Y-96317384D01*
X81850595Y-96336718D01*
X82169675Y-96292961D01*
X82474088Y-96187795D01*
X82648044Y-96094814D01*
X82743808Y-95830413D01*
X81788000Y-94874605D01*
X80832192Y-95830413D01*
X74168302Y-95830413D01*
X74156365Y-95770404D01*
X74067672Y-95556280D01*
X73938909Y-95363574D01*
X73775026Y-95199691D01*
X73582320Y-95070928D01*
X73368196Y-94982235D01*
X73140883Y-94937020D01*
X72909117Y-94937020D01*
X72681804Y-94982235D01*
X72467680Y-95070928D01*
X72274974Y-95199691D01*
X72111091Y-95363574D01*
X71982328Y-95556280D01*
X71893635Y-95770404D01*
X71872000Y-95879171D01*
X71872000Y-94757595D01*
X80146282Y-94757595D01*
X80190039Y-95076675D01*
X80295205Y-95381088D01*
X80388186Y-95555044D01*
X80652587Y-95650808D01*
X81608395Y-94695000D01*
X81967605Y-94695000D01*
X82923413Y-95650808D01*
X83187814Y-95555044D01*
X83328704Y-95265429D01*
X83410384Y-94953892D01*
X83429718Y-94632405D01*
X83385961Y-94313325D01*
X83280795Y-94008912D01*
X83187814Y-93834956D01*
X82923413Y-93739192D01*
X81967605Y-94695000D01*
X81608395Y-94695000D01*
X80652587Y-93739192D01*
X80388186Y-93834956D01*
X80247296Y-94124571D01*
X80165616Y-94436108D01*
X80146282Y-94757595D01*
X71872000Y-94757595D01*
X71872000Y-93350829D01*
X71893635Y-93459596D01*
X71982328Y-93673720D01*
X72111091Y-93866426D01*
X72274974Y-94030309D01*
X72467680Y-94159072D01*
X72681804Y-94247765D01*
X72909117Y-94292980D01*
X73140883Y-94292980D01*
X73368196Y-94247765D01*
X73582320Y-94159072D01*
X73775026Y-94030309D01*
X73938909Y-93866426D01*
X74067672Y-93673720D01*
X74114947Y-93559587D01*
X80832192Y-93559587D01*
X81788000Y-94515395D01*
X82743808Y-93559587D01*
X82648044Y-93295186D01*
X82358429Y-93154296D01*
X82046892Y-93072616D01*
X81725405Y-93053282D01*
X81406325Y-93097039D01*
X81101912Y-93202205D01*
X80927956Y-93295186D01*
X80832192Y-93559587D01*
X74114947Y-93559587D01*
X74156365Y-93459596D01*
X74201580Y-93232283D01*
X74201580Y-93000517D01*
X74156365Y-92773204D01*
X74067672Y-92559080D01*
X73938909Y-92366374D01*
X73775026Y-92202491D01*
X73582320Y-92073728D01*
X73368196Y-91985035D01*
X73140883Y-91939820D01*
X72909117Y-91939820D01*
X72681804Y-91985035D01*
X72467680Y-92073728D01*
X72274974Y-92202491D01*
X72111091Y-92366374D01*
X71982328Y-92559080D01*
X71893635Y-92773204D01*
X71872000Y-92881971D01*
X71872000Y-85495811D01*
X72603000Y-85495811D01*
X72603000Y-85954189D01*
X72692426Y-86403761D01*
X72867840Y-86827248D01*
X73122501Y-87208376D01*
X73446624Y-87532499D01*
X73827752Y-87787160D01*
X74251239Y-87962574D01*
X74700811Y-88052000D01*
X75159189Y-88052000D01*
X75608761Y-87962574D01*
X76032248Y-87787160D01*
X76413376Y-87532499D01*
X76737499Y-87208376D01*
X76992160Y-86827248D01*
X77167574Y-86403761D01*
X77257000Y-85954189D01*
X77257000Y-85495811D01*
X77167574Y-85046239D01*
X76992160Y-84622752D01*
X76737499Y-84241624D01*
X76413376Y-83917501D01*
X76032248Y-83662840D01*
X75608761Y-83487426D01*
X75159189Y-83398000D01*
X74700811Y-83398000D01*
X74251239Y-83487426D01*
X73827752Y-83662840D01*
X73446624Y-83917501D01*
X73122501Y-84241624D01*
X72867840Y-84622752D01*
X72692426Y-85046239D01*
X72603000Y-85495811D01*
X71872000Y-85495811D01*
X71872000Y-83302000D01*
X104521000Y-83302000D01*
X104521000Y-83566000D01*
%TA.AperFunction,Conductor*%
D20*
G36*
X104521000Y-83566000D02*
G01*
X104523440Y-83590776D01*
X104530667Y-83614601D01*
X104542403Y-83636557D01*
X104558197Y-83655803D01*
X104577443Y-83671597D01*
X104599399Y-83683333D01*
X104623224Y-83690560D01*
X104648000Y-83693000D01*
X123698000Y-83693000D01*
X123722776Y-83690560D01*
X123746601Y-83683333D01*
X123768557Y-83671597D01*
X123787803Y-83655803D01*
X123803597Y-83636557D01*
X123815333Y-83614601D01*
X123822560Y-83590776D01*
X123825000Y-83566000D01*
X123825000Y-83302000D01*
X147203000Y-83302000D01*
X147203001Y-115453000D01*
X126142047Y-115453000D01*
X127702296Y-113892751D01*
X127742146Y-113860048D01*
X127782832Y-113810472D01*
X127872671Y-113701003D01*
X127969661Y-113519549D01*
X127969667Y-113519528D01*
X128029386Y-113322660D01*
X128044500Y-113169206D01*
X128044500Y-113169196D01*
X128049552Y-113117903D01*
X128044500Y-113066609D01*
X128044500Y-112437715D01*
X128224936Y-112257279D01*
X128327344Y-112104014D01*
X128344822Y-112133355D01*
X128539731Y-112349588D01*
X128773080Y-112523641D01*
X129035901Y-112648825D01*
X129183110Y-112693476D01*
X129413000Y-112572155D01*
X129413000Y-111379000D01*
X129393000Y-111379000D01*
X129393000Y-111125000D01*
X129413000Y-111125000D01*
X129413000Y-111105000D01*
X129667000Y-111105000D01*
X129667000Y-111125000D01*
X129687000Y-111125000D01*
X129687000Y-111379000D01*
X129667000Y-111379000D01*
X129667000Y-112572155D01*
X129896890Y-112693476D01*
X130044099Y-112648825D01*
X130306920Y-112523641D01*
X130540269Y-112349588D01*
X130735178Y-112133355D01*
X130752656Y-112104014D01*
X130855064Y-112257279D01*
X131074721Y-112476936D01*
X131333011Y-112649519D01*
X131620006Y-112768396D01*
X131924679Y-112829000D01*
X132235321Y-112829000D01*
X132539994Y-112768396D01*
X132826989Y-112649519D01*
X133085279Y-112476936D01*
X133124896Y-112437319D01*
X133162597Y-112507853D01*
X133253446Y-112618554D01*
X133364147Y-112709403D01*
X133490443Y-112776910D01*
X133627483Y-112818480D01*
X133770000Y-112832517D01*
X135470000Y-112832517D01*
X135612517Y-112818480D01*
X135670764Y-112800811D01*
X141818000Y-112800811D01*
X141818000Y-113259189D01*
X141907426Y-113708761D01*
X142082840Y-114132248D01*
X142337501Y-114513376D01*
X142661624Y-114837499D01*
X143042752Y-115092160D01*
X143466239Y-115267574D01*
X143915811Y-115357000D01*
X144374189Y-115357000D01*
X144823761Y-115267574D01*
X145247248Y-115092160D01*
X145628376Y-114837499D01*
X145952499Y-114513376D01*
X146207160Y-114132248D01*
X146382574Y-113708761D01*
X146472000Y-113259189D01*
X146472000Y-112800811D01*
X146382574Y-112351239D01*
X146207160Y-111927752D01*
X145952499Y-111546624D01*
X145628376Y-111222501D01*
X145247248Y-110967840D01*
X144823761Y-110792426D01*
X144374189Y-110703000D01*
X143915811Y-110703000D01*
X143466239Y-110792426D01*
X143042752Y-110967840D01*
X142661624Y-111222501D01*
X142337501Y-111546624D01*
X142082840Y-111927752D01*
X141907426Y-112351239D01*
X141818000Y-112800811D01*
X135670764Y-112800811D01*
X135749557Y-112776910D01*
X135875853Y-112709403D01*
X135986554Y-112618554D01*
X136077403Y-112507853D01*
X136144910Y-112381557D01*
X136186480Y-112244517D01*
X136200517Y-112102000D01*
X136200517Y-110402000D01*
X136186480Y-110259483D01*
X136144910Y-110122443D01*
X136077403Y-109996147D01*
X135986554Y-109885446D01*
X135875853Y-109794597D01*
X135749557Y-109727090D01*
X135654103Y-109698135D01*
X135649386Y-109650242D01*
X135589661Y-109453353D01*
X135492671Y-109271900D01*
X135362146Y-109112854D01*
X135322291Y-109080146D01*
X134759854Y-108517709D01*
X134727146Y-108477854D01*
X134568100Y-108347329D01*
X134386647Y-108250339D01*
X134189758Y-108190614D01*
X134036304Y-108175500D01*
X134036293Y-108175500D01*
X133985000Y-108170448D01*
X133933707Y-108175500D01*
X133225442Y-108175500D01*
X133461989Y-108077519D01*
X133720279Y-107904936D01*
X133939936Y-107685279D01*
X134112519Y-107426989D01*
X134231396Y-107139994D01*
X134292000Y-106835321D01*
X134292000Y-106524679D01*
X134231396Y-106220006D01*
X134112519Y-105933011D01*
X133939936Y-105674721D01*
X133900319Y-105635104D01*
X133970853Y-105597403D01*
X134081554Y-105506554D01*
X134172403Y-105395853D01*
X134239910Y-105269557D01*
X134281480Y-105132517D01*
X134295517Y-104990000D01*
X134295517Y-104022663D01*
X134845500Y-104572646D01*
X134845501Y-107898697D01*
X134840448Y-107950000D01*
X134845501Y-108001303D01*
X134845501Y-108001304D01*
X134860615Y-108154758D01*
X134866907Y-108175500D01*
X134920339Y-108351646D01*
X135017329Y-108533100D01*
X135091929Y-108624000D01*
X135147855Y-108692146D01*
X135187704Y-108724849D01*
X136385149Y-109922295D01*
X136417854Y-109962146D01*
X136457703Y-109994849D01*
X136457704Y-109994850D01*
X136576899Y-110092671D01*
X136758353Y-110189661D01*
X136955242Y-110249386D01*
X137108696Y-110264500D01*
X137108706Y-110264500D01*
X137159999Y-110269552D01*
X137211293Y-110264500D01*
X137879285Y-110264500D01*
X138059721Y-110444936D01*
X138318011Y-110617519D01*
X138605006Y-110736396D01*
X138909679Y-110797000D01*
X139220321Y-110797000D01*
X139524994Y-110736396D01*
X139811989Y-110617519D01*
X140070279Y-110444936D01*
X140289936Y-110225279D01*
X140462519Y-109966989D01*
X140581396Y-109679994D01*
X140642000Y-109375321D01*
X140642000Y-109064679D01*
X140581396Y-108760006D01*
X140462519Y-108473011D01*
X140289936Y-108214721D01*
X140070279Y-107995064D01*
X140002836Y-107950000D01*
X140070279Y-107904936D01*
X140289936Y-107685279D01*
X140462519Y-107426989D01*
X140581396Y-107139994D01*
X140642000Y-106835321D01*
X140642000Y-106524679D01*
X140581396Y-106220006D01*
X140462519Y-105933011D01*
X140289936Y-105674721D01*
X140070279Y-105455064D01*
X140002836Y-105410000D01*
X140070279Y-105364936D01*
X140289936Y-105145279D01*
X140462519Y-104886989D01*
X140581396Y-104599994D01*
X140642000Y-104295321D01*
X140642000Y-103984679D01*
X140581396Y-103680006D01*
X140462519Y-103393011D01*
X140289936Y-103134721D01*
X140070279Y-102915064D01*
X140002836Y-102870000D01*
X140070279Y-102824936D01*
X140289936Y-102605279D01*
X140462519Y-102346989D01*
X140581396Y-102059994D01*
X140642000Y-101755321D01*
X140642000Y-101444679D01*
X140581396Y-101140006D01*
X140462519Y-100853011D01*
X140289936Y-100594721D01*
X140070279Y-100375064D01*
X140002836Y-100330000D01*
X140070279Y-100284936D01*
X140289936Y-100065279D01*
X140462519Y-99806989D01*
X140581396Y-99519994D01*
X140642000Y-99215321D01*
X140642000Y-98904679D01*
X140581396Y-98600006D01*
X140462519Y-98313011D01*
X140289936Y-98054721D01*
X140070279Y-97835064D01*
X140002836Y-97790000D01*
X140070279Y-97744936D01*
X140289936Y-97525279D01*
X140462519Y-97266989D01*
X140581396Y-96979994D01*
X140642000Y-96675321D01*
X140642000Y-96364679D01*
X140581396Y-96060006D01*
X140462519Y-95773011D01*
X140289936Y-95514721D01*
X140070279Y-95295064D01*
X140002836Y-95250000D01*
X140070279Y-95204936D01*
X140289936Y-94985279D01*
X140462519Y-94726989D01*
X140581396Y-94439994D01*
X140642000Y-94135321D01*
X140642000Y-93824679D01*
X140581396Y-93520006D01*
X140462519Y-93233011D01*
X140289936Y-92974721D01*
X140070279Y-92755064D01*
X139917014Y-92652656D01*
X139946355Y-92635178D01*
X140162588Y-92440269D01*
X140336641Y-92206920D01*
X140461825Y-91944099D01*
X140506476Y-91796890D01*
X140385155Y-91567000D01*
X139192000Y-91567000D01*
X139192000Y-91587000D01*
X138938000Y-91587000D01*
X138938000Y-91567000D01*
X137744845Y-91567000D01*
X137623524Y-91796890D01*
X137668175Y-91944099D01*
X137793359Y-92206920D01*
X137967412Y-92440269D01*
X138183645Y-92635178D01*
X138212986Y-92652656D01*
X138059721Y-92755064D01*
X137879285Y-92935500D01*
X137846293Y-92935500D01*
X137795000Y-92930448D01*
X137743706Y-92935500D01*
X137743696Y-92935500D01*
X137590242Y-92950614D01*
X137410192Y-93005231D01*
X137393353Y-93010339D01*
X137211899Y-93107329D01*
X137092704Y-93205150D01*
X137052854Y-93237854D01*
X137020150Y-93277704D01*
X136189856Y-94107999D01*
X134101822Y-94107999D01*
X134112519Y-94091989D01*
X134231396Y-93804994D01*
X134292000Y-93500321D01*
X134292000Y-93189679D01*
X134231396Y-92885006D01*
X134112519Y-92598011D01*
X133939936Y-92339721D01*
X133720279Y-92120064D01*
X133652836Y-92075000D01*
X133720279Y-92029936D01*
X133939936Y-91810279D01*
X134112519Y-91551989D01*
X134231396Y-91264994D01*
X134292000Y-90960321D01*
X134292000Y-90649679D01*
X134231396Y-90345006D01*
X134112519Y-90058011D01*
X133939936Y-89799721D01*
X133720279Y-89580064D01*
X133567014Y-89477656D01*
X133596355Y-89460178D01*
X133812588Y-89265269D01*
X133986641Y-89031920D01*
X134111825Y-88769099D01*
X134156476Y-88621890D01*
X134035155Y-88392000D01*
X132842000Y-88392000D01*
X132842000Y-88412000D01*
X132588000Y-88412000D01*
X132588000Y-88392000D01*
X132568000Y-88392000D01*
X132568000Y-88138000D01*
X132588000Y-88138000D01*
X132588000Y-88118000D01*
X132842000Y-88118000D01*
X132842000Y-88138000D01*
X134035155Y-88138000D01*
X134081595Y-88050000D01*
X137484483Y-88050000D01*
X137484483Y-89750000D01*
X137498520Y-89892517D01*
X137540090Y-90029557D01*
X137607597Y-90155853D01*
X137698446Y-90266554D01*
X137809147Y-90357403D01*
X137935443Y-90424910D01*
X137971665Y-90435898D01*
X137967412Y-90439731D01*
X137793359Y-90673080D01*
X137668175Y-90935901D01*
X137623524Y-91083110D01*
X137744845Y-91313000D01*
X138938000Y-91313000D01*
X138938000Y-91293000D01*
X139192000Y-91293000D01*
X139192000Y-91313000D01*
X140385155Y-91313000D01*
X140506476Y-91083110D01*
X140461825Y-90935901D01*
X140336641Y-90673080D01*
X140162588Y-90439731D01*
X140158335Y-90435898D01*
X140194557Y-90424910D01*
X140320853Y-90357403D01*
X140431554Y-90266554D01*
X140522403Y-90155853D01*
X140589910Y-90029557D01*
X140631480Y-89892517D01*
X140645517Y-89750000D01*
X140645517Y-88050000D01*
X140631480Y-87907483D01*
X140589910Y-87770443D01*
X140522403Y-87644147D01*
X140431554Y-87533446D01*
X140320853Y-87442597D01*
X140194557Y-87375090D01*
X140057517Y-87333520D01*
X139915000Y-87319483D01*
X138215000Y-87319483D01*
X138072483Y-87333520D01*
X137935443Y-87375090D01*
X137809147Y-87442597D01*
X137698446Y-87533446D01*
X137607597Y-87644147D01*
X137540090Y-87770443D01*
X137498520Y-87907483D01*
X137484483Y-88050000D01*
X134081595Y-88050000D01*
X134156476Y-87908110D01*
X134111825Y-87760901D01*
X133986641Y-87498080D01*
X133812588Y-87264731D01*
X133808335Y-87260898D01*
X133844557Y-87249910D01*
X133970853Y-87182403D01*
X134081554Y-87091554D01*
X134172403Y-86980853D01*
X134239910Y-86854557D01*
X134281480Y-86717517D01*
X134295517Y-86575000D01*
X134295517Y-85495811D01*
X141818000Y-85495811D01*
X141818000Y-85954189D01*
X141907426Y-86403761D01*
X142082840Y-86827248D01*
X142337501Y-87208376D01*
X142661624Y-87532499D01*
X143042752Y-87787160D01*
X143466239Y-87962574D01*
X143915811Y-88052000D01*
X144374189Y-88052000D01*
X144823761Y-87962574D01*
X145247248Y-87787160D01*
X145628376Y-87532499D01*
X145952499Y-87208376D01*
X146207160Y-86827248D01*
X146382574Y-86403761D01*
X146472000Y-85954189D01*
X146472000Y-85495811D01*
X146382574Y-85046239D01*
X146207160Y-84622752D01*
X145952499Y-84241624D01*
X145628376Y-83917501D01*
X145247248Y-83662840D01*
X144823761Y-83487426D01*
X144374189Y-83398000D01*
X143915811Y-83398000D01*
X143466239Y-83487426D01*
X143042752Y-83662840D01*
X142661624Y-83917501D01*
X142337501Y-84241624D01*
X142082840Y-84622752D01*
X141907426Y-85046239D01*
X141818000Y-85495811D01*
X134295517Y-85495811D01*
X134295517Y-84875000D01*
X134281480Y-84732483D01*
X134239910Y-84595443D01*
X134172403Y-84469147D01*
X134081554Y-84358446D01*
X133970853Y-84267597D01*
X133844557Y-84200090D01*
X133707517Y-84158520D01*
X133565000Y-84144483D01*
X132526817Y-84144483D01*
X132481647Y-84120339D01*
X132284758Y-84060614D01*
X132131304Y-84045500D01*
X132131293Y-84045500D01*
X132080000Y-84040448D01*
X132028707Y-84045500D01*
X109906301Y-84045500D01*
X109855000Y-84040447D01*
X109803699Y-84045500D01*
X109803696Y-84045500D01*
X109650242Y-84060614D01*
X109453353Y-84120339D01*
X109271900Y-84217329D01*
X109234527Y-84248000D01*
X109074528Y-84248000D01*
X108789175Y-84304760D01*
X108520378Y-84416099D01*
X108278467Y-84577739D01*
X108072739Y-84783467D01*
X107911099Y-85025378D01*
X107799760Y-85294175D01*
X107743000Y-85579528D01*
X107743000Y-85870472D01*
X107799760Y-86155825D01*
X107911099Y-86424622D01*
X108072739Y-86666533D01*
X108278467Y-86872261D01*
X108520378Y-87033901D01*
X108789175Y-87145240D01*
X109074528Y-87202000D01*
X109365472Y-87202000D01*
X109650825Y-87145240D01*
X109919622Y-87033901D01*
X110161533Y-86872261D01*
X110367261Y-86666533D01*
X110528901Y-86424622D01*
X110640240Y-86155825D01*
X110644482Y-86134500D01*
X123805181Y-86134500D01*
X123733099Y-86242378D01*
X123621760Y-86511175D01*
X123565000Y-86796528D01*
X123565000Y-87087472D01*
X123621760Y-87372825D01*
X123733099Y-87641622D01*
X123894739Y-87883533D01*
X124100467Y-88089261D01*
X124342378Y-88250901D01*
X124611175Y-88362240D01*
X124896528Y-88419000D01*
X125187472Y-88419000D01*
X125472825Y-88362240D01*
X125741622Y-88250901D01*
X125983533Y-88089261D01*
X126086294Y-87986500D01*
X128419355Y-87986500D01*
X130136756Y-89703901D01*
X130122000Y-89702448D01*
X130070707Y-89707500D01*
X126086294Y-89707500D01*
X125983533Y-89604739D01*
X125741622Y-89443099D01*
X125472825Y-89331760D01*
X125187472Y-89275000D01*
X124896528Y-89275000D01*
X124611175Y-89331760D01*
X124342378Y-89443099D01*
X124100467Y-89604739D01*
X123894739Y-89810467D01*
X123733099Y-90052378D01*
X123621760Y-90321175D01*
X123565000Y-90606528D01*
X123565000Y-90897472D01*
X123621760Y-91182825D01*
X123733099Y-91451622D01*
X123876008Y-91665500D01*
X121971293Y-91665500D01*
X121919999Y-91660448D01*
X121868706Y-91665500D01*
X121868696Y-91665500D01*
X121715242Y-91680614D01*
X121518475Y-91740302D01*
X121518353Y-91740339D01*
X121336899Y-91837329D01*
X121218463Y-91934527D01*
X121177854Y-91967854D01*
X121145151Y-92007703D01*
X119044856Y-94107999D01*
X114655333Y-94107999D01*
X114689167Y-94046211D01*
X114735547Y-93898698D01*
X114752259Y-93744973D01*
X114738900Y-93593678D01*
X114873027Y-93608259D01*
X115027059Y-93594658D01*
X115175479Y-93551269D01*
X115312582Y-93479759D01*
X115325839Y-93470899D01*
X115309951Y-93280978D01*
X114881000Y-92852027D01*
X114452049Y-93280978D01*
X114449959Y-93305959D01*
X114424978Y-93308049D01*
X113996027Y-93737000D01*
X114083709Y-93824682D01*
X114051182Y-93857209D01*
X113963500Y-93769527D01*
X113875819Y-93857209D01*
X113843292Y-93824682D01*
X113930973Y-93737000D01*
X113502022Y-93308049D01*
X113477041Y-93305959D01*
X113474951Y-93280978D01*
X113046000Y-92852027D01*
X112617049Y-93280978D01*
X112614959Y-93305959D01*
X112589978Y-93308049D01*
X112161027Y-93737000D01*
X112248709Y-93824682D01*
X112216182Y-93857209D01*
X112128500Y-93769527D01*
X112040819Y-93857209D01*
X112008292Y-93824682D01*
X112095973Y-93737000D01*
X111667022Y-93308049D01*
X111642041Y-93305959D01*
X111639951Y-93280978D01*
X111211000Y-92852027D01*
X110782049Y-93280978D01*
X110766161Y-93470899D01*
X110901789Y-93545167D01*
X111049302Y-93591547D01*
X111203027Y-93608259D01*
X111354322Y-93594900D01*
X111339741Y-93729027D01*
X111353342Y-93883059D01*
X111396731Y-94031479D01*
X111436642Y-94107999D01*
X110398140Y-94107999D01*
X110475901Y-93991622D01*
X110587240Y-93722825D01*
X110644000Y-93437472D01*
X110644000Y-93257279D01*
X110749522Y-93248451D01*
X111178473Y-92819500D01*
X111243527Y-92819500D01*
X111672478Y-93248451D01*
X111697459Y-93250541D01*
X111699549Y-93275522D01*
X112128500Y-93704473D01*
X112557451Y-93275522D01*
X112559541Y-93250541D01*
X112584522Y-93248451D01*
X113013473Y-92819500D01*
X113078527Y-92819500D01*
X113507478Y-93248451D01*
X113532459Y-93250541D01*
X113534549Y-93275522D01*
X113963500Y-93704473D01*
X114392451Y-93275522D01*
X114394541Y-93250541D01*
X114419522Y-93248451D01*
X114848473Y-92819500D01*
X114913527Y-92819500D01*
X115342478Y-93248451D01*
X115532399Y-93264339D01*
X115606667Y-93128711D01*
X115653047Y-92981198D01*
X115669759Y-92827473D01*
X115656158Y-92673441D01*
X115612769Y-92525021D01*
X115541259Y-92387918D01*
X115532399Y-92374661D01*
X115342478Y-92390549D01*
X114913527Y-92819500D01*
X114848473Y-92819500D01*
X114419522Y-92390549D01*
X114394541Y-92388459D01*
X114392451Y-92363478D01*
X113963500Y-91934527D01*
X113534549Y-92363478D01*
X113532459Y-92388459D01*
X113507478Y-92390549D01*
X113078527Y-92819500D01*
X113013473Y-92819500D01*
X112584522Y-92390549D01*
X112559541Y-92388459D01*
X112557451Y-92363478D01*
X112128500Y-91934527D01*
X111699549Y-92363478D01*
X111697459Y-92388459D01*
X111672478Y-92390549D01*
X111243527Y-92819500D01*
X111178473Y-92819500D01*
X110749522Y-92390549D01*
X110559601Y-92374661D01*
X110485333Y-92510289D01*
X110464764Y-92575710D01*
X110314261Y-92350467D01*
X110108533Y-92144739D01*
X109866622Y-91983099D01*
X109597825Y-91871760D01*
X109312472Y-91815000D01*
X109052146Y-91815000D01*
X109220146Y-91647000D01*
X109365472Y-91647000D01*
X109421280Y-91635899D01*
X110766161Y-91635899D01*
X110901789Y-91710167D01*
X111049302Y-91756547D01*
X111203027Y-91773259D01*
X111354322Y-91759900D01*
X111339741Y-91894027D01*
X111353100Y-92045322D01*
X111218973Y-92030741D01*
X111064941Y-92044342D01*
X110916521Y-92087731D01*
X110779418Y-92159241D01*
X110766161Y-92168101D01*
X110782049Y-92358022D01*
X111211000Y-92786973D01*
X111639951Y-92358022D01*
X111642041Y-92333041D01*
X111667022Y-92330951D01*
X112095973Y-91902000D01*
X112161027Y-91902000D01*
X112589978Y-92330951D01*
X112614959Y-92333041D01*
X112617049Y-92358022D01*
X113046000Y-92786973D01*
X113474951Y-92358022D01*
X113477041Y-92333041D01*
X113502022Y-92330951D01*
X113930973Y-91902000D01*
X113996027Y-91902000D01*
X114424978Y-92330951D01*
X114449959Y-92333041D01*
X114452049Y-92358022D01*
X114881000Y-92786973D01*
X115309951Y-92358022D01*
X115325839Y-92168101D01*
X115190211Y-92093833D01*
X115042698Y-92047453D01*
X114888973Y-92030741D01*
X114737678Y-92044100D01*
X114752259Y-91909973D01*
X114738900Y-91758678D01*
X114873027Y-91773259D01*
X115027059Y-91759658D01*
X115175479Y-91716269D01*
X115312582Y-91644759D01*
X115325839Y-91635899D01*
X115309951Y-91445978D01*
X114881000Y-91017027D01*
X114452049Y-91445978D01*
X114449959Y-91470959D01*
X114424978Y-91473049D01*
X113996027Y-91902000D01*
X113930973Y-91902000D01*
X113502022Y-91473049D01*
X113477041Y-91470959D01*
X113474951Y-91445978D01*
X113046000Y-91017027D01*
X112617049Y-91445978D01*
X112614959Y-91470959D01*
X112589978Y-91473049D01*
X112161027Y-91902000D01*
X112095973Y-91902000D01*
X111667022Y-91473049D01*
X111642041Y-91470959D01*
X111639951Y-91445978D01*
X111211000Y-91017027D01*
X110782049Y-91445978D01*
X110766161Y-91635899D01*
X109421280Y-91635899D01*
X109650825Y-91590240D01*
X109919622Y-91478901D01*
X110161533Y-91317261D01*
X110367261Y-91111533D01*
X110426353Y-91023096D01*
X110435842Y-91130559D01*
X110479231Y-91278979D01*
X110550741Y-91416082D01*
X110559601Y-91429339D01*
X110749522Y-91413451D01*
X111178473Y-90984500D01*
X111243527Y-90984500D01*
X111672478Y-91413451D01*
X111697459Y-91415541D01*
X111699549Y-91440522D01*
X112128500Y-91869473D01*
X112557451Y-91440522D01*
X112559541Y-91415541D01*
X112584522Y-91413451D01*
X113013473Y-90984500D01*
X113078527Y-90984500D01*
X113507478Y-91413451D01*
X113532459Y-91415541D01*
X113534549Y-91440522D01*
X113963500Y-91869473D01*
X114392451Y-91440522D01*
X114394541Y-91415541D01*
X114419522Y-91413451D01*
X114848473Y-90984500D01*
X114913527Y-90984500D01*
X115342478Y-91413451D01*
X115532399Y-91429339D01*
X115606667Y-91293711D01*
X115653047Y-91146198D01*
X115669759Y-90992473D01*
X115656158Y-90838441D01*
X115612769Y-90690021D01*
X115541259Y-90552918D01*
X115532399Y-90539661D01*
X115342478Y-90555549D01*
X114913527Y-90984500D01*
X114848473Y-90984500D01*
X114419522Y-90555549D01*
X114394541Y-90553459D01*
X114392451Y-90528478D01*
X113963500Y-90099527D01*
X113534549Y-90528478D01*
X113532459Y-90553459D01*
X113507478Y-90555549D01*
X113078527Y-90984500D01*
X113013473Y-90984500D01*
X112584522Y-90555549D01*
X112559541Y-90553459D01*
X112557451Y-90528478D01*
X112128500Y-90099527D01*
X111699549Y-90528478D01*
X111697459Y-90553459D01*
X111672478Y-90555549D01*
X111243527Y-90984500D01*
X111178473Y-90984500D01*
X111090792Y-90896819D01*
X111123319Y-90864292D01*
X111211000Y-90951973D01*
X111639951Y-90523022D01*
X111642041Y-90498041D01*
X111667022Y-90495951D01*
X112095973Y-90067000D01*
X112161027Y-90067000D01*
X112589978Y-90495951D01*
X112614959Y-90498041D01*
X112617049Y-90523022D01*
X113046000Y-90951973D01*
X113474951Y-90523022D01*
X113477041Y-90498041D01*
X113502022Y-90495951D01*
X113930973Y-90067000D01*
X113996027Y-90067000D01*
X114424978Y-90495951D01*
X114449959Y-90498041D01*
X114452049Y-90523022D01*
X114881000Y-90951973D01*
X115309951Y-90523022D01*
X115325839Y-90333101D01*
X115190211Y-90258833D01*
X115042698Y-90212453D01*
X114888973Y-90195741D01*
X114737678Y-90209100D01*
X114752259Y-90074973D01*
X114738658Y-89920941D01*
X114695269Y-89772521D01*
X114623759Y-89635418D01*
X114614899Y-89622161D01*
X114424978Y-89638049D01*
X113996027Y-90067000D01*
X113930973Y-90067000D01*
X113502022Y-89638049D01*
X113312101Y-89622161D01*
X113237833Y-89757789D01*
X113191453Y-89905302D01*
X113174741Y-90059027D01*
X113188100Y-90210322D01*
X113053973Y-90195741D01*
X112902678Y-90209100D01*
X112917259Y-90074973D01*
X112903658Y-89920941D01*
X112860269Y-89772521D01*
X112788759Y-89635418D01*
X112779899Y-89622161D01*
X112589978Y-89638049D01*
X112161027Y-90067000D01*
X112095973Y-90067000D01*
X111667022Y-89638049D01*
X111477101Y-89622161D01*
X111402833Y-89757789D01*
X111356453Y-89905302D01*
X111339741Y-90059027D01*
X111353100Y-90210322D01*
X111218973Y-90195741D01*
X111064941Y-90209342D01*
X110916521Y-90252731D01*
X110779418Y-90324241D01*
X110766161Y-90333101D01*
X110768622Y-90362514D01*
X110743474Y-90337366D01*
X110680024Y-90400816D01*
X110697000Y-90315472D01*
X110697000Y-90024528D01*
X110640240Y-89739175D01*
X110528901Y-89470378D01*
X110492301Y-89415601D01*
X111683661Y-89415601D01*
X111699549Y-89605522D01*
X112128500Y-90034473D01*
X112557451Y-89605522D01*
X112573339Y-89415601D01*
X113518661Y-89415601D01*
X113534549Y-89605522D01*
X113963500Y-90034473D01*
X114392451Y-89605522D01*
X114408339Y-89415601D01*
X114272711Y-89341333D01*
X114125198Y-89294953D01*
X113971473Y-89278241D01*
X113817441Y-89291842D01*
X113669021Y-89335231D01*
X113531918Y-89406741D01*
X113518661Y-89415601D01*
X112573339Y-89415601D01*
X112437711Y-89341333D01*
X112290198Y-89294953D01*
X112136473Y-89278241D01*
X111982441Y-89291842D01*
X111834021Y-89335231D01*
X111696918Y-89406741D01*
X111683661Y-89415601D01*
X110492301Y-89415601D01*
X110367261Y-89228467D01*
X110161533Y-89022739D01*
X109919622Y-88861099D01*
X109650825Y-88749760D01*
X109365472Y-88693000D01*
X109074528Y-88693000D01*
X108789175Y-88749760D01*
X108520378Y-88861099D01*
X108278467Y-89022739D01*
X108072739Y-89228467D01*
X107911099Y-89470378D01*
X107799760Y-89739175D01*
X107743000Y-90024528D01*
X107743000Y-90169854D01*
X106612709Y-91300146D01*
X106572854Y-91332854D01*
X106442329Y-91491900D01*
X106345339Y-91673354D01*
X106285614Y-91870243D01*
X106270500Y-92023697D01*
X106270500Y-92023707D01*
X106265448Y-92075000D01*
X106270500Y-92126293D01*
X106270501Y-111835697D01*
X106265448Y-111887000D01*
X106270501Y-111938303D01*
X106270501Y-111938304D01*
X106283310Y-112068350D01*
X106285615Y-112091757D01*
X106345339Y-112288646D01*
X106442329Y-112470100D01*
X106491163Y-112529604D01*
X106572855Y-112629146D01*
X106612704Y-112661849D01*
X107897000Y-113946145D01*
X107897000Y-114201321D01*
X107957604Y-114505994D01*
X108076481Y-114792989D01*
X108249064Y-115051279D01*
X108468721Y-115270936D01*
X108727011Y-115443519D01*
X108749900Y-115453000D01*
X71872000Y-115453000D01*
X71872000Y-112800811D01*
X72603000Y-112800811D01*
X72603000Y-113259189D01*
X72692426Y-113708761D01*
X72867840Y-114132248D01*
X73122501Y-114513376D01*
X73446624Y-114837499D01*
X73827752Y-115092160D01*
X74251239Y-115267574D01*
X74700811Y-115357000D01*
X75159189Y-115357000D01*
X75608761Y-115267574D01*
X76032248Y-115092160D01*
X76413376Y-114837499D01*
X76737499Y-114513376D01*
X76992160Y-114132248D01*
X77167574Y-113708761D01*
X77179952Y-113646528D01*
X88312000Y-113646528D01*
X88312000Y-113937472D01*
X88368760Y-114222825D01*
X88480099Y-114491622D01*
X88641739Y-114733533D01*
X88847467Y-114939261D01*
X89089378Y-115100901D01*
X89358175Y-115212240D01*
X89643528Y-115269000D01*
X89934472Y-115269000D01*
X90219825Y-115212240D01*
X90488622Y-115100901D01*
X90730533Y-114939261D01*
X90936261Y-114733533D01*
X91097901Y-114491622D01*
X91209240Y-114222825D01*
X91266000Y-113937472D01*
X91266000Y-113646528D01*
X91209240Y-113361175D01*
X91097901Y-113092378D01*
X90936261Y-112850467D01*
X90833500Y-112747706D01*
X90833500Y-100311528D01*
X91487000Y-100311528D01*
X91487000Y-100602472D01*
X91543760Y-100887825D01*
X91655099Y-101156622D01*
X91816739Y-101398533D01*
X91919501Y-101501295D01*
X91919500Y-112747706D01*
X91816739Y-112850467D01*
X91655099Y-113092378D01*
X91543760Y-113361175D01*
X91487000Y-113646528D01*
X91487000Y-113937472D01*
X91543760Y-114222825D01*
X91655099Y-114491622D01*
X91816739Y-114733533D01*
X92022467Y-114939261D01*
X92264378Y-115100901D01*
X92533175Y-115212240D01*
X92818528Y-115269000D01*
X93109472Y-115269000D01*
X93394825Y-115212240D01*
X93663622Y-115100901D01*
X93905533Y-114939261D01*
X94111261Y-114733533D01*
X94272901Y-114491622D01*
X94384240Y-114222825D01*
X94441000Y-113937472D01*
X94441000Y-113646528D01*
X94384240Y-113361175D01*
X94272901Y-113092378D01*
X94111261Y-112850467D01*
X94008500Y-112747706D01*
X94008500Y-108624000D01*
X96844483Y-108624000D01*
X96844483Y-110324000D01*
X96858520Y-110466517D01*
X96900090Y-110603557D01*
X96967597Y-110729853D01*
X97058446Y-110840554D01*
X97169147Y-110931403D01*
X97295443Y-110998910D01*
X97432483Y-111040480D01*
X97575000Y-111054517D01*
X99275000Y-111054517D01*
X99417517Y-111040480D01*
X99554557Y-110998910D01*
X99680853Y-110931403D01*
X99791554Y-110840554D01*
X99882403Y-110729853D01*
X99949910Y-110603557D01*
X99991480Y-110466517D01*
X100005517Y-110324000D01*
X100005517Y-108624000D01*
X103067483Y-108624000D01*
X103067483Y-110324000D01*
X103081520Y-110466517D01*
X103123090Y-110603557D01*
X103190597Y-110729853D01*
X103281446Y-110840554D01*
X103392147Y-110931403D01*
X103518443Y-110998910D01*
X103655483Y-111040480D01*
X103798000Y-111054517D01*
X105498000Y-111054517D01*
X105640517Y-111040480D01*
X105777557Y-110998910D01*
X105903853Y-110931403D01*
X106014554Y-110840554D01*
X106105403Y-110729853D01*
X106172910Y-110603557D01*
X106214480Y-110466517D01*
X106228517Y-110324000D01*
X106228517Y-108624000D01*
X106214480Y-108481483D01*
X106172910Y-108344443D01*
X106105403Y-108218147D01*
X106014554Y-108107446D01*
X105903853Y-108016597D01*
X105833319Y-107978896D01*
X105872936Y-107939279D01*
X106045519Y-107680989D01*
X106164396Y-107393994D01*
X106225000Y-107089321D01*
X106225000Y-106778679D01*
X106164396Y-106474006D01*
X106045519Y-106187011D01*
X105872936Y-105928721D01*
X105653279Y-105709064D01*
X105394989Y-105536481D01*
X105107994Y-105417604D01*
X104803321Y-105357000D01*
X104492679Y-105357000D01*
X104188006Y-105417604D01*
X103901011Y-105536481D01*
X103642721Y-105709064D01*
X103423064Y-105928721D01*
X103250481Y-106187011D01*
X103131604Y-106474006D01*
X103071000Y-106778679D01*
X103071000Y-107089321D01*
X103131604Y-107393994D01*
X103250481Y-107680989D01*
X103423064Y-107939279D01*
X103462681Y-107978896D01*
X103392147Y-108016597D01*
X103281446Y-108107446D01*
X103190597Y-108218147D01*
X103123090Y-108344443D01*
X103081520Y-108481483D01*
X103067483Y-108624000D01*
X100005517Y-108624000D01*
X99991480Y-108481483D01*
X99949910Y-108344443D01*
X99882403Y-108218147D01*
X99791554Y-108107446D01*
X99680853Y-108016597D01*
X99610319Y-107978896D01*
X99649936Y-107939279D01*
X99822519Y-107680989D01*
X99941396Y-107393994D01*
X100002000Y-107089321D01*
X100002000Y-106778679D01*
X99941396Y-106474006D01*
X99822519Y-106187011D01*
X99649936Y-105928721D01*
X99430279Y-105709064D01*
X99171989Y-105536481D01*
X98884994Y-105417604D01*
X98580321Y-105357000D01*
X98269679Y-105357000D01*
X97965006Y-105417604D01*
X97678011Y-105536481D01*
X97419721Y-105709064D01*
X97200064Y-105928721D01*
X97027481Y-106187011D01*
X96908604Y-106474006D01*
X96848000Y-106778679D01*
X96848000Y-107089321D01*
X96908604Y-107393994D01*
X97027481Y-107680989D01*
X97200064Y-107939279D01*
X97239681Y-107978896D01*
X97169147Y-108016597D01*
X97058446Y-108107446D01*
X96967597Y-108218147D01*
X96900090Y-108344443D01*
X96858520Y-108481483D01*
X96844483Y-108624000D01*
X94008500Y-108624000D01*
X94008500Y-101501294D01*
X94111261Y-101398533D01*
X94272901Y-101156622D01*
X94384240Y-100887825D01*
X94441000Y-100602472D01*
X94441000Y-100311528D01*
X94384240Y-100026175D01*
X94272901Y-99757378D01*
X94111261Y-99515467D01*
X93905533Y-99309739D01*
X93663622Y-99148099D01*
X93394825Y-99036760D01*
X93109472Y-98980000D01*
X92818528Y-98980000D01*
X92533175Y-99036760D01*
X92264378Y-99148099D01*
X92022467Y-99309739D01*
X91816739Y-99515467D01*
X91655099Y-99757378D01*
X91543760Y-100026175D01*
X91487000Y-100311528D01*
X90833500Y-100311528D01*
X90833500Y-99873645D01*
X97587646Y-93119500D01*
X101190706Y-93119500D01*
X101293467Y-93222261D01*
X101535378Y-93383901D01*
X101804175Y-93495240D01*
X102089528Y-93552000D01*
X102380472Y-93552000D01*
X102665825Y-93495240D01*
X102934622Y-93383901D01*
X103176533Y-93222261D01*
X103382261Y-93016533D01*
X103543901Y-92774622D01*
X103655240Y-92505825D01*
X103712000Y-92220472D01*
X103712000Y-91929528D01*
X103655240Y-91644175D01*
X103543901Y-91375378D01*
X103382261Y-91133467D01*
X103176533Y-90927739D01*
X102934622Y-90766099D01*
X102665825Y-90654760D01*
X102380472Y-90598000D01*
X102089528Y-90598000D01*
X101804175Y-90654760D01*
X101535378Y-90766099D01*
X101293467Y-90927739D01*
X101190706Y-91030500D01*
X97206293Y-91030500D01*
X97154999Y-91025448D01*
X97103706Y-91030500D01*
X97103696Y-91030500D01*
X96950242Y-91045614D01*
X96753353Y-91105339D01*
X96571899Y-91202329D01*
X96513080Y-91250601D01*
X96412854Y-91332854D01*
X96380151Y-91372703D01*
X89086704Y-98666151D01*
X89046855Y-98698854D01*
X89014152Y-98738703D01*
X89014150Y-98738705D01*
X88916329Y-98857900D01*
X88819339Y-99039354D01*
X88780156Y-99168528D01*
X88759615Y-99236242D01*
X88749232Y-99341661D01*
X88739448Y-99441000D01*
X88744501Y-99492303D01*
X88744500Y-112747706D01*
X88641739Y-112850467D01*
X88480099Y-113092378D01*
X88368760Y-113361175D01*
X88312000Y-113646528D01*
X77179952Y-113646528D01*
X77257000Y-113259189D01*
X77257000Y-112800811D01*
X77167574Y-112351239D01*
X76992160Y-111927752D01*
X76737499Y-111546624D01*
X76413376Y-111222501D01*
X76032248Y-110967840D01*
X75608761Y-110792426D01*
X75159189Y-110703000D01*
X74700811Y-110703000D01*
X74251239Y-110792426D01*
X73827752Y-110967840D01*
X73446624Y-111222501D01*
X73122501Y-111546624D01*
X72867840Y-111927752D01*
X72692426Y-112351239D01*
X72603000Y-112800811D01*
X71872000Y-112800811D01*
X71872000Y-109856393D01*
X72042000Y-109893000D01*
X72517000Y-109893000D01*
X72517000Y-108910000D01*
X72771000Y-108910000D01*
X72771000Y-109893000D01*
X73246000Y-109893000D01*
X73460110Y-109846895D01*
X73661111Y-109759905D01*
X73841279Y-109635373D01*
X73993690Y-109478085D01*
X74112487Y-109294086D01*
X74188268Y-109080938D01*
X74061734Y-108910000D01*
X72771000Y-108910000D01*
X72517000Y-108910000D01*
X72497000Y-108910000D01*
X72497000Y-108722133D01*
X74584472Y-108722133D01*
X74646965Y-108958450D01*
X74889678Y-109071850D01*
X75149849Y-109135719D01*
X75417482Y-109147604D01*
X75682291Y-109107048D01*
X75934100Y-109015609D01*
X76041035Y-108958450D01*
X76103528Y-108722133D01*
X75344000Y-107962605D01*
X74584472Y-108722133D01*
X72497000Y-108722133D01*
X72497000Y-108656000D01*
X72517000Y-108656000D01*
X72517000Y-107673000D01*
X72771000Y-107673000D01*
X72771000Y-108656000D01*
X74061734Y-108656000D01*
X74188152Y-108485219D01*
X74404867Y-108542528D01*
X75164395Y-107783000D01*
X75523605Y-107783000D01*
X76283133Y-108542528D01*
X76519450Y-108480035D01*
X76632850Y-108237322D01*
X76696719Y-107977151D01*
X76708604Y-107709518D01*
X76668048Y-107444709D01*
X76576609Y-107192900D01*
X76519450Y-107085965D01*
X76283133Y-107023472D01*
X75523605Y-107783000D01*
X75164395Y-107783000D01*
X74404867Y-107023472D01*
X74168550Y-107085965D01*
X74055150Y-107328678D01*
X73991281Y-107588849D01*
X73979396Y-107856482D01*
X74019952Y-108121291D01*
X74026010Y-108137974D01*
X73993690Y-108087915D01*
X73841279Y-107930627D01*
X73661111Y-107806095D01*
X73460110Y-107719105D01*
X73246000Y-107673000D01*
X72771000Y-107673000D01*
X72517000Y-107673000D01*
X72042000Y-107673000D01*
X71872000Y-107709607D01*
X71872000Y-106843867D01*
X74584472Y-106843867D01*
X75344000Y-107603395D01*
X76103528Y-106843867D01*
X76041035Y-106607550D01*
X75798322Y-106494150D01*
X75538151Y-106430281D01*
X75270518Y-106418396D01*
X75005709Y-106458952D01*
X74753900Y-106550391D01*
X74646965Y-106607550D01*
X74584472Y-106843867D01*
X71872000Y-106843867D01*
X71872000Y-103722133D01*
X74584472Y-103722133D01*
X74646965Y-103958450D01*
X74889678Y-104071850D01*
X75149849Y-104135719D01*
X75417482Y-104147604D01*
X75682291Y-104107048D01*
X75934100Y-104015609D01*
X76041035Y-103958450D01*
X76103528Y-103722133D01*
X75344000Y-102962605D01*
X74584472Y-103722133D01*
X71872000Y-103722133D01*
X71872000Y-102856393D01*
X72042000Y-102893000D01*
X72517000Y-102893000D01*
X72517000Y-101910000D01*
X72771000Y-101910000D01*
X72771000Y-102893000D01*
X73246000Y-102893000D01*
X73460110Y-102846895D01*
X73661111Y-102759905D01*
X73841279Y-102635373D01*
X73993690Y-102478085D01*
X74033676Y-102416153D01*
X73991281Y-102588849D01*
X73979396Y-102856482D01*
X74019952Y-103121291D01*
X74111391Y-103373100D01*
X74168550Y-103480035D01*
X74404867Y-103542528D01*
X75164395Y-102783000D01*
X75523605Y-102783000D01*
X76283133Y-103542528D01*
X76519450Y-103480035D01*
X76632850Y-103237322D01*
X76696719Y-102977151D01*
X76708604Y-102709518D01*
X76668048Y-102444709D01*
X76576609Y-102192900D01*
X76519450Y-102085965D01*
X76283133Y-102023472D01*
X75523605Y-102783000D01*
X75164395Y-102783000D01*
X74404867Y-102023472D01*
X74188152Y-102080781D01*
X74061734Y-101910000D01*
X72771000Y-101910000D01*
X72517000Y-101910000D01*
X72497000Y-101910000D01*
X72497000Y-101843867D01*
X74584472Y-101843867D01*
X75344000Y-102603395D01*
X76103528Y-101843867D01*
X76041035Y-101607550D01*
X75798322Y-101494150D01*
X75538151Y-101430281D01*
X75270518Y-101418396D01*
X75005709Y-101458952D01*
X74753900Y-101550391D01*
X74646965Y-101607550D01*
X74584472Y-101843867D01*
X72497000Y-101843867D01*
X72497000Y-101656000D01*
X72517000Y-101656000D01*
X72517000Y-100673000D01*
X72771000Y-100673000D01*
X72771000Y-101656000D01*
X74061734Y-101656000D01*
X74188268Y-101485062D01*
X74112487Y-101271914D01*
X73993690Y-101087915D01*
X73841279Y-100930627D01*
X73661111Y-100806095D01*
X73460110Y-100719105D01*
X73246000Y-100673000D01*
X72771000Y-100673000D01*
X72517000Y-100673000D01*
X72042000Y-100673000D01*
X71872000Y-100709607D01*
X71872000Y-98695000D01*
X80057483Y-98695000D01*
X80057483Y-100695000D01*
X80071520Y-100837517D01*
X80113090Y-100974557D01*
X80180597Y-101100853D01*
X80271446Y-101211554D01*
X80382147Y-101302403D01*
X80508443Y-101369910D01*
X80645483Y-101411480D01*
X80788000Y-101425517D01*
X82788000Y-101425517D01*
X82930517Y-101411480D01*
X83067557Y-101369910D01*
X83193853Y-101302403D01*
X83304554Y-101211554D01*
X83395403Y-101100853D01*
X83462910Y-100974557D01*
X83504480Y-100837517D01*
X83518517Y-100695000D01*
X83518517Y-98695000D01*
X83504480Y-98552483D01*
X83462910Y-98415443D01*
X83395403Y-98289147D01*
X83304554Y-98178446D01*
X83193853Y-98087597D01*
X83067557Y-98020090D01*
X82930517Y-97978520D01*
X82788000Y-97964483D01*
X80788000Y-97964483D01*
X80645483Y-97978520D01*
X80508443Y-98020090D01*
X80382147Y-98087597D01*
X80271446Y-98178446D01*
X80180597Y-98289147D01*
X80113090Y-98415443D01*
X80071520Y-98552483D01*
X80057483Y-98695000D01*
X71872000Y-98695000D01*
X71872000Y-96348029D01*
X71893635Y-96456796D01*
X71982328Y-96670920D01*
X72111091Y-96863626D01*
X72274974Y-97027509D01*
X72467680Y-97156272D01*
X72681804Y-97244965D01*
X72909117Y-97290180D01*
X73140883Y-97290180D01*
X73368196Y-97244965D01*
X73582320Y-97156272D01*
X73775026Y-97027509D01*
X73938909Y-96863626D01*
X74067672Y-96670920D01*
X74156365Y-96456796D01*
X74201580Y-96229483D01*
X74201580Y-95997717D01*
X74168302Y-95830413D01*
X80832192Y-95830413D01*
X80927956Y-96094814D01*
X81217571Y-96235704D01*
X81529108Y-96317384D01*
X81850595Y-96336718D01*
X82169675Y-96292961D01*
X82474088Y-96187795D01*
X82648044Y-96094814D01*
X82743808Y-95830413D01*
X81788000Y-94874605D01*
X80832192Y-95830413D01*
X74168302Y-95830413D01*
X74156365Y-95770404D01*
X74067672Y-95556280D01*
X73938909Y-95363574D01*
X73775026Y-95199691D01*
X73582320Y-95070928D01*
X73368196Y-94982235D01*
X73140883Y-94937020D01*
X72909117Y-94937020D01*
X72681804Y-94982235D01*
X72467680Y-95070928D01*
X72274974Y-95199691D01*
X72111091Y-95363574D01*
X71982328Y-95556280D01*
X71893635Y-95770404D01*
X71872000Y-95879171D01*
X71872000Y-94757595D01*
X80146282Y-94757595D01*
X80190039Y-95076675D01*
X80295205Y-95381088D01*
X80388186Y-95555044D01*
X80652587Y-95650808D01*
X81608395Y-94695000D01*
X81967605Y-94695000D01*
X82923413Y-95650808D01*
X83187814Y-95555044D01*
X83328704Y-95265429D01*
X83410384Y-94953892D01*
X83429718Y-94632405D01*
X83385961Y-94313325D01*
X83280795Y-94008912D01*
X83187814Y-93834956D01*
X82923413Y-93739192D01*
X81967605Y-94695000D01*
X81608395Y-94695000D01*
X80652587Y-93739192D01*
X80388186Y-93834956D01*
X80247296Y-94124571D01*
X80165616Y-94436108D01*
X80146282Y-94757595D01*
X71872000Y-94757595D01*
X71872000Y-93350829D01*
X71893635Y-93459596D01*
X71982328Y-93673720D01*
X72111091Y-93866426D01*
X72274974Y-94030309D01*
X72467680Y-94159072D01*
X72681804Y-94247765D01*
X72909117Y-94292980D01*
X73140883Y-94292980D01*
X73368196Y-94247765D01*
X73582320Y-94159072D01*
X73775026Y-94030309D01*
X73938909Y-93866426D01*
X74067672Y-93673720D01*
X74114947Y-93559587D01*
X80832192Y-93559587D01*
X81788000Y-94515395D01*
X82743808Y-93559587D01*
X82648044Y-93295186D01*
X82358429Y-93154296D01*
X82046892Y-93072616D01*
X81725405Y-93053282D01*
X81406325Y-93097039D01*
X81101912Y-93202205D01*
X80927956Y-93295186D01*
X80832192Y-93559587D01*
X74114947Y-93559587D01*
X74156365Y-93459596D01*
X74201580Y-93232283D01*
X74201580Y-93000517D01*
X74156365Y-92773204D01*
X74067672Y-92559080D01*
X73938909Y-92366374D01*
X73775026Y-92202491D01*
X73582320Y-92073728D01*
X73368196Y-91985035D01*
X73140883Y-91939820D01*
X72909117Y-91939820D01*
X72681804Y-91985035D01*
X72467680Y-92073728D01*
X72274974Y-92202491D01*
X72111091Y-92366374D01*
X71982328Y-92559080D01*
X71893635Y-92773204D01*
X71872000Y-92881971D01*
X71872000Y-85495811D01*
X72603000Y-85495811D01*
X72603000Y-85954189D01*
X72692426Y-86403761D01*
X72867840Y-86827248D01*
X73122501Y-87208376D01*
X73446624Y-87532499D01*
X73827752Y-87787160D01*
X74251239Y-87962574D01*
X74700811Y-88052000D01*
X75159189Y-88052000D01*
X75608761Y-87962574D01*
X76032248Y-87787160D01*
X76413376Y-87532499D01*
X76737499Y-87208376D01*
X76992160Y-86827248D01*
X77167574Y-86403761D01*
X77257000Y-85954189D01*
X77257000Y-85495811D01*
X77167574Y-85046239D01*
X76992160Y-84622752D01*
X76737499Y-84241624D01*
X76413376Y-83917501D01*
X76032248Y-83662840D01*
X75608761Y-83487426D01*
X75159189Y-83398000D01*
X74700811Y-83398000D01*
X74251239Y-83487426D01*
X73827752Y-83662840D01*
X73446624Y-83917501D01*
X73122501Y-84241624D01*
X72867840Y-84622752D01*
X72692426Y-85046239D01*
X72603000Y-85495811D01*
X71872000Y-85495811D01*
X71872000Y-83302000D01*
X104521000Y-83302000D01*
X104521000Y-83566000D01*
G37*
%TD.AperFunction*%
D19*
X115419760Y-98883175D02*
X115363000Y-99168528D01*
X115363000Y-99459472D01*
X115419760Y-99744825D01*
X115531099Y-100013622D01*
X115692739Y-100255533D01*
X115795500Y-100358294D01*
X115795501Y-106628697D01*
X115790448Y-106680000D01*
X115795501Y-106731303D01*
X115795501Y-106731304D01*
X115810615Y-106884758D01*
X115821492Y-106920615D01*
X115870339Y-107081646D01*
X115967329Y-107263100D01*
X116021148Y-107328678D01*
X116097855Y-107422146D01*
X116137704Y-107454849D01*
X117407704Y-108724850D01*
X117407710Y-108724855D01*
X122348000Y-113665146D01*
X122348000Y-113810472D01*
X122404760Y-114095825D01*
X122477527Y-114271500D01*
X116256646Y-114271500D01*
X116134517Y-114149371D01*
X116134517Y-113196000D01*
X116120480Y-113053483D01*
X116078910Y-112916443D01*
X116011403Y-112790147D01*
X115920554Y-112679446D01*
X115809853Y-112588597D01*
X115683557Y-112521090D01*
X115546517Y-112479520D01*
X115404000Y-112465483D01*
X113704000Y-112465483D01*
X113561483Y-112479520D01*
X113424443Y-112521090D01*
X113298147Y-112588597D01*
X113187446Y-112679446D01*
X113096597Y-112790147D01*
X113029090Y-112916443D01*
X113018102Y-112952665D01*
X113014269Y-112948412D01*
X112780920Y-112774359D01*
X112518099Y-112649175D01*
X112370890Y-112604524D01*
X112141000Y-112725845D01*
X112141000Y-113919000D01*
X112161000Y-113919000D01*
X112161000Y-114173000D01*
X112141000Y-114173000D01*
X112141000Y-114193000D01*
X111887000Y-114193000D01*
X111887000Y-114173000D01*
X111867000Y-114173000D01*
X111867000Y-113919000D01*
X111887000Y-113919000D01*
X111887000Y-112725845D01*
X111657110Y-112604524D01*
X111509901Y-112649175D01*
X111247080Y-112774359D01*
X111013731Y-112948412D01*
X110818822Y-113164645D01*
X110801344Y-113193986D01*
X110698936Y-113040721D01*
X110479279Y-112821064D01*
X110220989Y-112648481D01*
X109933994Y-112529604D01*
X109629321Y-112469000D01*
X109374145Y-112469000D01*
X108359500Y-111454355D01*
X108359500Y-99608819D01*
X108467378Y-99680901D01*
X108736175Y-99792240D01*
X109021528Y-99849000D01*
X109312472Y-99849000D01*
X109597825Y-99792240D01*
X109866622Y-99680901D01*
X110108533Y-99519261D01*
X110211294Y-99416500D01*
X111761707Y-99416500D01*
X111813000Y-99421552D01*
X111864293Y-99416500D01*
X111864304Y-99416500D01*
X112017758Y-99401386D01*
X112214647Y-99341661D01*
X112396100Y-99244671D01*
X112555146Y-99114146D01*
X112587854Y-99074291D01*
X112827645Y-98834500D01*
X115439922Y-98834500D01*
X115419760Y-98883175D01*
%TA.AperFunction,Conductor*%
D20*
G36*
X115419760Y-98883175D02*
G01*
X115363000Y-99168528D01*
X115363000Y-99459472D01*
X115419760Y-99744825D01*
X115531099Y-100013622D01*
X115692739Y-100255533D01*
X115795500Y-100358294D01*
X115795501Y-106628697D01*
X115790448Y-106680000D01*
X115795501Y-106731303D01*
X115795501Y-106731304D01*
X115810615Y-106884758D01*
X115821492Y-106920615D01*
X115870339Y-107081646D01*
X115967329Y-107263100D01*
X116021148Y-107328678D01*
X116097855Y-107422146D01*
X116137704Y-107454849D01*
X117407704Y-108724850D01*
X117407710Y-108724855D01*
X122348000Y-113665146D01*
X122348000Y-113810472D01*
X122404760Y-114095825D01*
X122477527Y-114271500D01*
X116256646Y-114271500D01*
X116134517Y-114149371D01*
X116134517Y-113196000D01*
X116120480Y-113053483D01*
X116078910Y-112916443D01*
X116011403Y-112790147D01*
X115920554Y-112679446D01*
X115809853Y-112588597D01*
X115683557Y-112521090D01*
X115546517Y-112479520D01*
X115404000Y-112465483D01*
X113704000Y-112465483D01*
X113561483Y-112479520D01*
X113424443Y-112521090D01*
X113298147Y-112588597D01*
X113187446Y-112679446D01*
X113096597Y-112790147D01*
X113029090Y-112916443D01*
X113018102Y-112952665D01*
X113014269Y-112948412D01*
X112780920Y-112774359D01*
X112518099Y-112649175D01*
X112370890Y-112604524D01*
X112141000Y-112725845D01*
X112141000Y-113919000D01*
X112161000Y-113919000D01*
X112161000Y-114173000D01*
X112141000Y-114173000D01*
X112141000Y-114193000D01*
X111887000Y-114193000D01*
X111887000Y-114173000D01*
X111867000Y-114173000D01*
X111867000Y-113919000D01*
X111887000Y-113919000D01*
X111887000Y-112725845D01*
X111657110Y-112604524D01*
X111509901Y-112649175D01*
X111247080Y-112774359D01*
X111013731Y-112948412D01*
X110818822Y-113164645D01*
X110801344Y-113193986D01*
X110698936Y-113040721D01*
X110479279Y-112821064D01*
X110220989Y-112648481D01*
X109933994Y-112529604D01*
X109629321Y-112469000D01*
X109374145Y-112469000D01*
X108359500Y-111454355D01*
X108359500Y-99608819D01*
X108467378Y-99680901D01*
X108736175Y-99792240D01*
X109021528Y-99849000D01*
X109312472Y-99849000D01*
X109597825Y-99792240D01*
X109866622Y-99680901D01*
X110108533Y-99519261D01*
X110211294Y-99416500D01*
X111761707Y-99416500D01*
X111813000Y-99421552D01*
X111864293Y-99416500D01*
X111864304Y-99416500D01*
X112017758Y-99401386D01*
X112214647Y-99341661D01*
X112396100Y-99244671D01*
X112555146Y-99114146D01*
X112587854Y-99074291D01*
X112827645Y-98834500D01*
X115439922Y-98834500D01*
X115419760Y-98883175D01*
G37*
%TD.AperFunction*%
D19*
X118232739Y-100255533D02*
X118438467Y-100461261D01*
X118680378Y-100622901D01*
X118949175Y-100734240D01*
X119234528Y-100791000D01*
X119525472Y-100791000D01*
X119810825Y-100734240D01*
X120079622Y-100622901D01*
X120092291Y-100614436D01*
X129400149Y-109922295D01*
X129404157Y-109927178D01*
X129183110Y-109810524D01*
X129035901Y-109855175D01*
X128773080Y-109980359D01*
X128539731Y-110154412D01*
X128344822Y-110370645D01*
X128327344Y-110399986D01*
X128224936Y-110246721D01*
X128005279Y-110027064D01*
X127746989Y-109854481D01*
X127459994Y-109735604D01*
X127155321Y-109675000D01*
X126844679Y-109675000D01*
X126540006Y-109735604D01*
X126253011Y-109854481D01*
X125994721Y-110027064D01*
X125775064Y-110246721D01*
X125602481Y-110505011D01*
X125483604Y-110792006D01*
X125423000Y-111096679D01*
X125423000Y-111407321D01*
X125483604Y-111711994D01*
X125602481Y-111998989D01*
X125775064Y-112257279D01*
X125955500Y-112437715D01*
X125955500Y-112685256D01*
X125272008Y-113368748D01*
X125245240Y-113234175D01*
X125133901Y-112965378D01*
X124972261Y-112723467D01*
X124766533Y-112517739D01*
X124524622Y-112356099D01*
X124255825Y-112244760D01*
X123970472Y-112188000D01*
X123825146Y-112188000D01*
X118884855Y-107247710D01*
X118884850Y-107247704D01*
X117884500Y-106247355D01*
X117884500Y-100358294D01*
X117987261Y-100255533D01*
X118110000Y-100071841D01*
X118232739Y-100255533D01*
%TA.AperFunction,Conductor*%
D20*
G36*
X118232739Y-100255533D02*
G01*
X118438467Y-100461261D01*
X118680378Y-100622901D01*
X118949175Y-100734240D01*
X119234528Y-100791000D01*
X119525472Y-100791000D01*
X119810825Y-100734240D01*
X120079622Y-100622901D01*
X120092291Y-100614436D01*
X129400149Y-109922295D01*
X129404157Y-109927178D01*
X129183110Y-109810524D01*
X129035901Y-109855175D01*
X128773080Y-109980359D01*
X128539731Y-110154412D01*
X128344822Y-110370645D01*
X128327344Y-110399986D01*
X128224936Y-110246721D01*
X128005279Y-110027064D01*
X127746989Y-109854481D01*
X127459994Y-109735604D01*
X127155321Y-109675000D01*
X126844679Y-109675000D01*
X126540006Y-109735604D01*
X126253011Y-109854481D01*
X125994721Y-110027064D01*
X125775064Y-110246721D01*
X125602481Y-110505011D01*
X125483604Y-110792006D01*
X125423000Y-111096679D01*
X125423000Y-111407321D01*
X125483604Y-111711994D01*
X125602481Y-111998989D01*
X125775064Y-112257279D01*
X125955500Y-112437715D01*
X125955500Y-112685256D01*
X125272008Y-113368748D01*
X125245240Y-113234175D01*
X125133901Y-112965378D01*
X124972261Y-112723467D01*
X124766533Y-112517739D01*
X124524622Y-112356099D01*
X124255825Y-112244760D01*
X123970472Y-112188000D01*
X123825146Y-112188000D01*
X118884855Y-107247710D01*
X118884850Y-107247704D01*
X117884500Y-106247355D01*
X117884500Y-100358294D01*
X117987261Y-100255533D01*
X118110000Y-100071841D01*
X118232739Y-100255533D01*
G37*
%TD.AperFunction*%
%TD*%
M02*
